<?xml version="1.0" encoding="utf-8"?>
<!-- Generator: Adobe Illustrator 28.2.0, SVG Export Plug-In . SVG Version: 6.00 Build 0)  -->
<svg version="1.1" id="Layer_1" xmlns="http://www.w3.org/2000/svg" xmlns:xlink="http://www.w3.org/1999/xlink" x="0px" y="0px"
	 viewBox="0 0 500 500" style="enable-background:new 0 0 500 500;" xml:space="preserve">
<style type="text/css">
	.st0{fill:#FFFFFF;}
	.st1{fill:none;}
	.st2{fill:#010101;}
	.st3{fill:#4C4C4C;}
	.st4{fill:#FF0050;}
	.st5{fill:#00F2EA;}
	.st6{fill:none;stroke:#000000;stroke-width:0.25;stroke-miterlimit:10;}
	.st7{fill:#9E0000;}
</style>
<path class="st0" d="M533.5,439.1c0.1,0.1,0.3,0.3,0.4,0.4C533.8,439.3,533.7,439.2,533.5,439.1z"/>
<line class="st1" x1="949.6" y1="-130.6" x2="949.6" y2="-130.6"/>
<path class="st2" d="M948.5-124.5"/>
<path class="st2" d="M873-170.6"/>
<path class="st3" d="M953.3-91.6"/>
<g>
	<path class="st0" d="M317.8,288.4c-0.2,0.4-0.5,0.7-0.9,0.9c-5.9-8.8-11.5-17.9-21.4-23.2c4-0.5,8.2-1.1,11.9,1.3
		c2.9,2,5.9,3.8,9.5,1.6c0.5-0.4,1.3-0.2,1.5,0.5C320.6,276,320.8,282.2,317.8,288.4z"/>
	<path class="st0" d="M367.4,222.6c-0.4-2-0.9-3.8-1.5-5.9c-2.2-7.7-5.1-15-8.6-21.9c-1.3-2.6-2.7-5.1-4.2-7.7
		c-0.5-0.9-1.1-1.8-1.8-2.7c-1.8-2.7-3.7-5.5-5.7-8c-2-2.6-4-5.1-6.2-7.5c-0.7-0.7-1.5-1.6-2.2-2.4c-0.7-0.7-1.3-1.5-2-2
		c-21.8-21.8-51.9-35.3-85.2-35.3c-16.6,0-32.6,3.5-47,9.5c-1.3,0.5-2.7,1.1-4,1.8c-1.3,0.5-2.6,1.3-4,1.8c-2.6,1.3-5.1,2.7-7.7,4.2
		c-1.6,1.1-3.3,2-4.9,3.1l0,0c-6,4-11.7,8.6-16.8,13.7c-8.6,8.4-15.9,18.1-21.8,28.7c-1.1,2.2-2.2,4.4-3.3,6.4
		c-0.5,1.1-0.9,2.2-1.5,3.3c-2.4,5.7-4.4,11.3-6,17.4l0,0c-2.4,9.7-3.8,19.8-3.8,30.2c0,6.2,0.5,12.4,1.5,18.3
		c0.7,4.9,1.8,9.9,3.1,14.6c0.7,2.7,1.6,5.5,2.6,8.2c0,0.2,0.2,0.4,0.2,0.5c0.4,0.7,0.5,1.6,0.9,2.4c0.4,0.9,0.7,1.8,1.1,2.7
		c0.4,0.7,0.5,1.5,0.9,2.2c0.9,2,1.8,4.2,2.9,6.2c0.4,0.7,0.7,1.5,1.1,2.2c0.4,0.9,0.9,1.6,1.5,2.6s0.9,1.6,1.5,2.6
		c0.9,1.6,2,3.3,3.1,4.9c1.6,2.4,3.3,4.8,5.1,6.9c2.9,3.8,6.2,7.3,9.5,10.8c0.7,0.7,1.3,1.3,2,2l0,0c0.7,0.7,1.5,1.3,2.2,2
		c1.5,1.3,2.9,2.6,4.4,3.8c0.4,0.4,0.7,0.5,1.1,0.9s0.7,0.5,1.1,0.9l0,0c0.4,0.4,0.7,0.5,1.1,0.9c0.4,0.4,0.7,0.5,1.1,0.9
		c0.5,0.4,1.3,0.9,1.8,1.3c0.2,0.2,0.4,0.2,0.5,0.4c0.4,0.4,0.9,0.5,1.3,0.9c0.4,0.2,0.7,0.5,1.1,0.7l0,0c0.2,0.2,0.4,0.2,0.5,0.4
		c1.3,0.9,2.6,1.6,3.8,2.4c0.2,0.2,0.4,0.2,0.5,0.4l0,0c0.9,0.5,1.6,0.9,2.6,1.5c0.9,0.5,1.6,0.9,2.6,1.5l0,0
		c0.4,0.2,0.9,0.4,1.3,0.7c0.4,0.2,0.9,0.4,1.3,0.7l0,0c0.7,0.4,1.3,0.7,2,0.9c1.3,0.5,2.6,1.3,4,1.8c0.7,0.4,1.3,0.5,2,0.9l0,0
		c0.9,0.4,1.8,0.7,2.7,1.1l0,0c0.9,0.4,1.8,0.7,2.7,1.1l0,0c0.9,0.4,1.8,0.7,2.7,0.9c1.8,0.5,3.8,1.3,5.7,1.8s3.8,1.1,5.9,1.5l0,0
		c0.5,0.2,1.3,0.4,1.8,0.4c0.2,0,0.2,0,0.4,0c0.2,0,0.5,0.2,0.7,0.2c0.5,0,0.9,0.2,1.5,0.2c1.3,0.2,2.6,0.5,3.8,0.7
		c0.7,0.2,1.5,0.2,2.4,0.4c1.3,0.2,2.7,0.4,4,0.5c0.5,0,1.3,0.2,2,0.2c1.5,0.2,2.9,0.2,4.2,0.4c1.3,0,2.4,0.2,3.7,0.2
		c0.9,0,1.8,0,2.7,0c11,0,21.6-1.5,31.6-4.2c1.3-0.4,2.6-0.7,3.7-1.1c3.7-1.1,7.3-2.4,11-3.8c4.8-2,9.3-4.2,13.7-6.8
		c1.6-0.9,3.3-2,4.9-3.1l0,0c1.3-0.7,2.4-1.6,3.7-2.4l0,0c1.1-0.9,2.4-1.6,3.5-2.6l0,0c1.5-1.1,3.1-2.4,4.6-3.7s2.9-2.6,4.4-3.8
		s2.7-2.6,4.2-4c0.7-0.7,1.3-1.5,2-2c0.7-0.7,1.5-1.6,2.2-2.4c2.2-2.4,4.2-4.9,6.2-7.5c2-2.6,3.8-5.3,5.7-8c0.5-0.9,1.1-1.8,1.8-2.7
		c1.5-2.6,2.9-5.1,4.2-7.7c3.5-6.9,6.4-14.3,8.6-21.9c0.5-1.8,1.1-3.8,1.5-5.9c2-8.8,3.1-17.9,3.1-27.2
		C370,239.8,369.4,231.3,367.4,222.6z M349.1,235.9c-1.3,2.6-2.6,5.1-4.2,7.7c-0.2-2,0-4-0.4-5.9c-0.5-2.6-1.1-5.1-2.4-7.1
		c-1.1-1.6-3.5-2.6-5.5-3.7c-0.4-0.2-1.5,0.2-2,0.7c-5.9,4.2-9.3,9.9-11.2,16.8c-2,7.9-0.2,15.2,1.8,22.9c1.5,5.5,2.6,11.3,3.5,17
		c0.4,2.2,0.7,6,0.5,8.2c-0.4,9.9-2.2,19.2-6.9,28.5c-0.5-2.6-0.9-4.8-1.5-6.8c-1.3-4.2-3.1-8-6.6-10.8c-2.2-1.8-4.4-2.9-7.3-1.5
		c-4.6,2-9.5,3.1-17.6,15.5c-8.2,13.2-12.4,27.4-16.1,42.4c-1.3-0.5-2.6-1.3-3.8-1.8c-10.1-4.6-19.8-9.7-29.3-15.4
		c-13-7.9-25.6-16.1-37.3-25.8c-0.4-0.2-0.5-0.4-0.9-0.7c-7.3-6.2-14.6-12.6-21-19.6c-7.3-8-13.7-16.8-20.5-25.2
		c0.2-0.2,0.4-0.5,0.5-0.7c2.7-0.4,5.5-0.7,8.2-0.9c6.8-0.4,13.5-0.7,20.3-0.9c6-0.4,11.9-0.7,17.9-0.9c13.2-0.2,26.5-0.7,39.7-0.4
		c8.6,0.2,17.2,0.5,25.4,3.7c8,3.1,15.5,7.1,22.7,12.1c3.7,2.6,7.1,5.5,10.6,8.2c0.2,0,0.4,0,0.5,0c-0.2-0.2-0.2-0.4-0.4-0.4
		c-2.7-4.6-5.1-9.5-8.6-13.5c-4.2-4.8-9.3-8.8-14.3-12.8c-1.3-1.1-2.9-2.4-4.6-2.9c-4.8-1.5-6.2-5.3-7.5-9.3
		c-1.5-4.6-1.8-9.1-0.7-13.7c1.8-8.4,9-13,17-15.9c3.5-1.3,7.1-2,11-2.4c7.7-0.7,15.5-0.9,23.2-1.3c0.4,0,0.7,0,0.9-0.2
		c-0.4-0.2-0.5-0.5-0.9-0.7c-5.9-2-11.5-4.4-17.7-5.3c-2.2-0.4-4.6-0.4-6.8,0c-11,1.5-19.9,6.2-27.2,13.5c-3.3,3.3-6.2,7.1-9.3,10.4
		c-0.9,0.9-2.6,1.6-3.7,1.5c-11.5-2-23.2-3.7-34.4-7.5c-4.9-1.8-9.9-3.7-13.9-7.3c8,1.3,15.9,3.8,24.9,3.1c-6.8-2.4-13.2-3.8-19.2-8
		c9.7,1.8,18.5,4,28.3,4.4c-5.3-2.2-9.9-4-14.4-5.9c0-0.4,0.2-0.5,0.2-0.9h7.9c6.8,0,13.5,0.2,20.3,0c5.7-0.4,11.2-1.3,16.6-1.8
		c6.2-0.5,12.1-2.7,17.6-5.5c5.9-3.1,10.6-7.3,15.2-12.3c0.5-0.5,1.6-1.3,2.6-1.1c5.9,0.5,11.5,1.1,17.4,1.8
		c-4.6-3.3-9.9-4.8-15.9-5.3c2.4-2.9,5.3-4.6,8.6-5.1c8.2-1.6,15.7,0.2,22.7,5.1c6.9,4.9,11,11.7,12.1,19.9
		C354.2,219.8,352.8,228.1,349.1,235.9z"/>
	<g>
		<path d="M426.1,243.8c0-1.1,0-2.2-0.2-3.3c0-1.3-0.2-2.7-0.2-4c0-0.7-0.2-1.5-0.2-2c0-0.9-0.2-1.8-0.2-2.9c0-0.2,0-0.4,0-0.5
			c-0.2-1.3-0.2-2.6-0.4-3.7c-0.2-1.3-0.4-2.4-0.4-3.7c-0.2-1.1-0.4-2.2-0.4-3.1c-0.2-0.9-0.4-2-0.4-2.9c-0.2-1.3-0.4-2.4-0.7-3.7
			c0-0.2,0-0.4,0-0.4c0-0.2,0-0.2,0-0.4c-0.2-1.1-0.4-2-0.5-2.9c-0.2-0.7-0.4-1.5-0.5-2.2c-0.2-1.1-0.4-2-0.7-3.1
			c-0.2-1.1-0.5-2-0.7-2.9c-0.2-0.7-0.4-1.6-0.5-2.4c-0.4-1.1-0.5-2.2-0.9-3.3v-0.2c-0.7-2.7-1.6-5.5-2.6-8.2
			c-0.4-1.5-0.9-2.7-1.5-4c-0.5-1.5-0.9-2.7-1.5-4c-1.1-2.7-2.2-5.3-3.3-8c-0.5-1.3-1.1-2.6-1.8-4c-1.3-2.6-2.6-5.1-3.8-7.7
			c-1.3-2.6-2.7-5.1-4.2-7.5c-1.5-2.6-2.9-4.9-4.6-7.3c-0.7-1.1-1.5-2.4-2.4-3.5c-0.7-1.1-1.6-2.4-2.4-3.5c-0.7-1.1-1.6-2.2-2.4-3.3
			l-0.2-0.2c-0.9-1.1-1.6-2.2-2.6-3.3c-0.9-1.3-1.8-2.4-2.9-3.7c-0.7-0.9-1.6-2-2.6-2.9c-0.5-0.7-1.3-1.5-1.8-2
			c-0.7-0.9-1.6-1.8-2.4-2.6c-0.7-0.9-1.6-1.6-2.4-2.6c0-0.2-0.2-0.2-0.2-0.2c-0.9-0.9-1.8-2-2.9-2.9c-0.2-0.2-0.4-0.4-0.5-0.5
			c-0.7-0.9-1.6-1.6-2.4-2.4c-0.4-0.4-0.5-0.5-0.9-0.9c-0.7-0.7-1.6-1.5-2.4-2.2c-0.4-0.4-0.7-0.7-1.1-0.9c-0.7-0.5-1.5-1.3-2.2-1.8
			c-0.4-0.4-0.7-0.7-1.1-1.1c-0.7-0.7-1.6-1.3-2.4-2c-2.6-2.2-5.3-4.2-8-6.2c-1.1-0.9-2.2-1.6-3.5-2.4c-1.3-0.7-2.4-1.6-3.5-2.4
			s-2.4-1.5-3.5-2.2c-1.1-0.7-2.4-1.5-3.7-2.2c-1.3-0.7-2.4-1.5-3.7-2c0,0,0,0-0.2,0c-1.1-0.5-2.4-1.3-3.5-1.8
			c-0.2,0-0.2-0.2-0.4-0.2c-1.1-0.5-2.2-1.1-3.3-1.6c-0.4-0.2-0.5-0.4-0.9-0.4c-1.1-0.5-2-0.9-3.1-1.5l-0.2-0.2
			c-1.1-0.5-2.2-0.9-3.3-1.5c-0.5-0.2-0.9-0.4-1.5-0.5c-0.9-0.4-1.8-0.7-2.7-1.1c-4.6-1.8-9.1-3.5-13.7-4.9c-0.9-0.4-2-0.5-2.9-0.9
			c-0.2,0-0.4-0.2-0.5-0.2c-1.1-0.4-2.4-0.7-3.5-0.9c-1.3-0.4-2.6-0.5-3.8-0.9c-1.1-0.2-2.2-0.5-3.3-0.7c-0.2,0-0.5-0.2-0.7-0.2
			c-0.9-0.2-1.8-0.4-2.7-0.5c-1.1-0.2-2.4-0.4-3.5-0.5c0,0,0,0-0.2,0c-1.5-0.4-3.1-0.5-4.6-0.7c-1.6-0.2-3.1-0.4-4.8-0.5
			c-1.5-0.2-3.1-0.4-4.8-0.4s-3.1-0.2-4.8-0.4c0,0,0,0-0.2,0c-1.5,0-2.7-0.2-4.2-0.2l0,0c-1.6,0-3.1,0-4.8,0c-3.1,0-6,0-9.1,0.2
			h-0.2c-0.2,0-0.2,0-0.4,0s-0.2,0-0.4,0c-0.4,0-0.7,0-0.9,0c-3.7,0.2-7.5,0.5-11.2,1.1c-1.3,0.2-2.7,0.4-4,0.5
			c-1.1,0.2-2.2,0.4-3.3,0.5c-0.4,0-0.7,0.2-1.1,0.2c-0.7,0.2-1.5,0.2-2,0.4c-0.9,0.2-1.6,0.4-2.6,0.5c-0.4,0-0.7,0.2-1.1,0.2
			c-0.9,0.2-1.8,0.4-2.9,0.5c-0.5,0.2-0.9,0.2-1.5,0.4c-0.9,0.2-1.8,0.4-2.7,0.7c-0.4,0.2-0.7,0.2-1.1,0.4c-0.7,0.2-1.6,0.4-2.4,0.7
			c-0.9,0.2-1.6,0.5-2.6,0.7c-0.4,0-0.5,0.2-0.9,0.2c-0.9,0.2-1.6,0.5-2.6,0.7c-0.5,0.2-1.3,0.4-1.8,0.5c-0.7,0.2-1.3,0.4-2,0.7
			c-1.1,0.4-2.4,0.9-3.5,1.3c-0.9,0.4-1.8,0.7-2.7,1.1c-9.7,3.8-18.8,8.4-27.6,13.9c-0.9,0.5-2,1.3-2.9,1.8c-0.2,0-0.4,0.2-0.5,0.4
			c-0.9,0.5-1.6,1.1-2.6,1.6c-0.4,0.4-0.9,0.5-1.3,0.9c-0.9,0.5-1.6,1.1-2.4,1.8c-0.2,0.2-0.4,0.4-0.7,0.5c-0.9,0.5-1.6,1.3-2.6,1.8
			c-0.4,0.2-0.5,0.4-0.9,0.7c-0.7,0.5-1.5,1.1-2.2,1.6c-1.5,1.1-2.7,2.2-4,3.3c-1.1,0.9-2,1.8-3.1,2.7c-0.9,0.9-2,1.8-2.9,2.7
			c-2.2,1.8-4.2,3.8-6.2,5.9c-1.1,1.3-2.4,2.4-3.5,3.7c-0.2,0.2-0.4,0.4-0.5,0.5c-0.7,0.7-1.5,1.5-2,2.2c-0.2,0.2-0.2,0.4-0.4,0.4
			c-0.4,0.4-0.7,0.9-1.1,1.3c-0.2,0.2-0.4,0.4-0.5,0.5c-0.5,0.5-0.9,1.1-1.5,1.6c-0.4,0.5-0.9,1.1-1.3,1.6l-0.2,0.2
			c-1.8,2.2-3.5,4.4-5.3,6.6c0,0,0,0,0,0.2c-0.2,0.2-0.4,0.5-0.5,0.7c-0.5,0.9-1.3,1.6-1.8,2.6c-0.4,0.4-0.5,0.7-0.9,1.1
			c0,0.2-0.2,0.2-0.2,0.4c-0.4,0.7-0.9,1.3-1.3,2c0,0,0,0.2-0.2,0.2c-0.7,1.1-1.5,2.2-2.2,3.5s-1.5,2.4-2.2,3.7
			c-1.5,2.2-2.7,4.6-4,6.8c-0.2,0.2-0.2,0.4-0.4,0.5c-0.7,1.3-1.5,2.6-2,3.8c-0.7,1.3-1.3,2.6-2,3.8c-1.3,2.6-2.6,5.1-3.7,7.9
			c-1.1,2.6-2.2,5.3-3.3,8c-1.1,2.7-2,5.5-2.9,8.2c-0.4,1.5-0.9,2.7-1.3,4.2s-0.9,2.7-1.3,4.2c-0.2,0.9-0.5,1.8-0.7,2.7
			c-0.2,0.5-0.2,0.9-0.4,1.5v0.2c-0.4,1.3-0.7,2.6-0.9,3.8c0,0.2,0,0.4-0.2,0.5c-0.4,1.5-0.7,2.9-0.9,4.4c-0.5,2.7-1.1,5.7-1.6,8.4
			c-0.2,0.9-0.4,2-0.4,2.9v0.2c0,0.4-0.2,0.9-0.2,1.3c0,0.5-0.2,1.3-0.2,1.8c-0.2,0.9-0.2,1.8-0.4,2.6c0,0.2,0,0.4,0,0.5
			c-0.2,1.1-0.2,2.4-0.4,3.5c0,0.2,0,0.4,0,0.5c-0.2,1.3-0.2,2.4-0.4,3.7c0,0.4,0,0.5,0,0.9c0,0.9-0.2,1.6-0.2,2.6
			c0,0.2,0,0.2,0,0.4c0,0.5,0,1.1,0,1.6c0,0.4,0,0.5,0,0.9c0,0.2,0,0.4,0,0.4c-0.2,2.6-0.2,5.3-0.2,7.9c0,1.1,0,2.4,0,3.5v0.4
			c0,0.4,0,0.5,0,0.9c0,0.7,0,1.5,0,2.2c0,0.4,0,0.9,0,1.3c0,0.5,0,1.1,0,1.6c0,0.9,0,1.6,0.2,2.6c0,0.5,0,1.3,0.2,1.8
			c0,0.7,0.2,1.5,0.2,2.2s0.2,1.5,0.2,2.2c0,0.9,0.2,1.8,0.2,2.6v0.2c0,0.7,0.2,1.3,0.2,2c0,0.7,0.2,1.3,0.2,2c0,0.2,0,0.5,0,0.7
			c0,0.4,0.2,0.7,0.2,1.3c0.2,1.1,0.4,2,0.4,3.1c0,0.4,0.2,0.7,0.2,1.1c0,0.2,0,0.2,0,0.4c0,0.5,0.2,0.9,0.2,1.5
			c0.2,0.9,0.4,1.8,0.5,2.9c0.2,1.5,0.5,2.9,0.9,4.4c0.4,1.5,0.5,2.9,0.9,4.4l0,0c0.4,1.5,0.7,2.7,1.1,4.2l0,0l0,0
			c0.7,2.9,1.5,5.7,2.4,8.4c0.2,0.7,0.4,1.5,0.7,2s0.4,1.5,0.7,2l0,0c0.9,2.7,1.8,5.5,2.9,8.2l0,0c0.5,1.3,1.1,2.7,1.6,4l0,0
			c0.2,0.5,0.4,1.1,0.7,1.6c0.4,0.9,0.7,1.6,1.1,2.4c0.2,0.2,0.2,0.5,0.4,0.7c0.2,0.5,0.5,1.1,0.7,1.6c0.2,0.5,0.4,0.9,0.7,1.5l0,0
			c0.5,1.3,1.3,2.6,1.8,3.8l0,0c0.5,1.3,1.3,2.6,1.8,3.8l0,0c0.7,1.3,1.3,2.6,2,3.7l0,0c0.7,1.3,1.5,2.6,2.2,3.7l0,0
			c0.7,1.3,1.5,2.4,2.2,3.7l0,0c0.7,1.3,1.5,2.4,2.2,3.7l0,0c0.7,1.3,1.5,2.4,2.4,3.5l0,0c1.6,2.4,3.3,4.6,4.9,6.9l0,0
			c0.4,0.5,0.9,1.1,1.3,1.6s0.9,1.1,1.3,1.6c0.9,1.1,1.8,2.2,2.6,3.3l0,0c0.9,1.1,1.8,2.2,2.7,3.3c0.9,1.1,1.8,2.2,2.7,3.1l0,0
			c1.8,2,3.8,4,5.9,6c1.1,1.3,2.4,2.4,3.7,3.5c0.2,0.2,0.2,0.4,0.4,0.4c0.9,0.9,1.8,1.6,2.7,2.6c0.5,0.5,1.1,1.1,1.8,1.6
			c2.2,2,4.6,4,6.9,5.9c1.1,0.9,2.2,1.6,3.3,2.6l0,0l0,0c1.1,0.9,2.2,1.6,3.3,2.4c2.2,1.6,4.6,3.3,6.9,4.8c1.1,0.7,2.4,1.5,3.5,2.2
			l0,0l0,0c0.4,0.4,0.9,0.5,1.5,0.9l0,0c1.1,0.7,2.4,1.5,3.5,2c1.5,0.9,2.9,1.6,4.4,2.4c0,0,0.2,0.2,0.4,0.2c0.7,0.4,1.5,0.7,2,1.1
			c0.9,0.4,1.6,0.9,2.6,1.3c0.2,0.2,0.4,0.2,0.5,0.2c2.2,1.1,4.4,2,6.6,3.1c0.4,0.2,0.5,0.2,0.9,0.4l0,0l0,0
			c0.5,0.4,1.3,0.5,1.8,0.9c0.4,0.2,0.7,0.4,1.1,0.4c0.4,0.2,0.5,0.2,0.9,0.4l0,0l0,0c1.3,0.5,2.6,1.1,3.8,1.5l0,0l0,0
			c0.5,0.2,1.1,0.4,1.6,0.5c0,0,0.2,0,0.4,0.2c0.7,0.2,1.3,0.5,2,0.7c0.4,0.2,0.7,0.2,1.1,0.4c0.9,0.4,2,0.7,2.9,0.9l0,0
			c2.7,0.9,5.3,1.6,8,2.4s5.5,1.5,8.2,2c1.6,0.4,3.3,0.7,4.8,0.9s2.7,0.5,4,0.7c2.6,0.4,5.3,0.7,7.9,1.1c2.9,0.4,5.7,0.5,8.6,0.7
			l0,0c1.5,0,2.9,0.2,4.4,0.2c1.1,0,2,0,2.9,0l0,0c0.9,0,2,0,2.9,0h1.3c0.5,0,0.9,0,1.5,0c0.2,0,0.2,0,0.4,0c0.7,0,1.5,0,2.4,0
			c1.1,0,2.4,0,3.5-0.2l0,0c0.2,0,0.2,0,0.4,0c0.9,0,1.8-0.2,2.7-0.2c2-0.2,3.8-0.4,5.9-0.5c0.5,0,1.1-0.2,1.8-0.2
			c1.1-0.2,2.2-0.2,3.3-0.4c0.2,0,0.4,0,0.7,0c1.1-0.2,2.2-0.4,3.5-0.5c0.7-0.2,1.5-0.2,2.2-0.4c0.5,0,1.3-0.2,1.8-0.4
			c0.7-0.2,1.5-0.4,2.4-0.4c0.9-0.2,1.8-0.4,2.6-0.5c0.5-0.2,1.3-0.2,1.8-0.4c0.7-0.2,1.5-0.4,2.4-0.5c0.7-0.2,1.3-0.4,1.8-0.5
			c0.9-0.2,1.8-0.5,2.7-0.7c3.3-0.9,6.8-2,10.1-3.1c1.5-0.5,2.9-1.1,4.4-1.6s2.7-1.1,4.2-1.6c1.8-0.7,3.5-1.5,5.3-2.2
			c1.1-0.4,2.2-0.9,3.1-1.5h0.2c1.1-0.5,2.2-0.9,3.1-1.5c0.5-0.4,1.3-0.5,1.8-0.9c0.9-0.4,1.6-0.9,2.6-1.3c1.1-0.5,2.2-1.1,3.3-1.8
			c0.7-0.4,1.5-0.9,2.2-1.3c0.5-0.4,1.1-0.5,1.6-0.9c0.7-0.4,1.5-0.9,2-1.3c0.5-0.4,1.1-0.7,1.6-1.1c0.7-0.5,1.5-0.9,2.4-1.5
			c0,0,0.2,0,0.2-0.2c1.1-0.7,2.2-1.5,3.3-2.2c5.9-4,11.3-8.2,16.6-13c0.9-0.7,1.8-1.5,2.6-2.4c0.2-0.2,0.4-0.4,0.7-0.5
			c0.9-0.7,1.6-1.5,2.4-2.2c0.2-0.2,0.5-0.4,0.7-0.7c0.7-0.7,1.5-1.5,2.2-2c0.4-0.4,0.9-0.9,1.3-1.3c0.5-0.5,1.3-1.3,1.8-2
			c0.2-0.2,0.4-0.5,0.7-0.7c0.9-0.9,1.6-1.6,2.4-2.6c0-0.2,0.2-0.2,0.2-0.4c0.9-0.9,1.8-2,2.6-2.9c1.8-2.2,3.7-4.4,5.3-6.6
			c0.9-1.1,1.6-2.2,2.6-3.3l0.2-0.2c1.6-2.2,3.3-4.4,4.8-6.8c0.7-1.1,1.6-2.4,2.4-3.5c1.5-2.4,3.1-4.8,4.6-7.3
			c1.5-2.4,2.7-4.9,4.2-7.5c1.3-2.6,2.6-5.1,3.8-7.7c0.5-1.3,1.3-2.6,1.8-4c1.1-2.6,2.2-5.3,3.3-8c0.5-1.3,1.1-2.7,1.5-4
			c0.5-1.3,0.9-2.7,1.5-4c0.9-2.7,1.8-5.5,2.6-8.2c0,0,0,0,0-0.2c0.4-1.1,0.5-2.2,0.9-3.3c0.2-0.7,0.4-1.6,0.5-2.4
			c0.2-0.9,0.5-2,0.7-2.9c0.2-1.1,0.5-2,0.7-3.1c0.2-0.7,0.4-1.5,0.5-2.2c0.2-0.9,0.4-2,0.5-2.9c0-0.2,0-0.2,0-0.4
			c0-0.2,0-0.4,0-0.4c0.2-1.3,0.4-2.4,0.7-3.7c0.2-0.9,0.4-2,0.4-2.9c0.2-1.1,0.4-2,0.4-3.1c0.2-1.1,0.4-2.4,0.4-3.7
			c0.2-1.3,0.2-2.4,0.4-3.7c0-0.2,0-0.4,0-0.5c0-0.9,0.2-1.8,0.2-2.9c0-0.7,0.2-1.3,0.2-2c0-1.3,0.2-2.7,0.2-4c0-1.1,0-2.2,0.2-3.3
			c0-2,0.2-4,0.2-6C426.3,247.8,426.3,245.8,426.1,243.8z M367.4,277.1c-0.4,2-0.9,3.8-1.5,5.9c-2.2,7.7-5.1,15-8.6,21.9
			c-1.3,2.6-2.7,5.1-4.2,7.7c-0.5,0.9-1.1,1.8-1.8,2.7c-1.8,2.7-3.7,5.5-5.7,8s-4,5.1-6.2,7.5c-0.7,0.7-1.5,1.6-2.2,2.4
			c-0.7,0.7-1.3,1.5-2,2c-1.3,1.5-2.7,2.7-4.2,4s-2.9,2.6-4.4,3.8c-1.5,1.3-2.9,2.4-4.6,3.7l0,0c-1.1,0.9-2.4,1.6-3.5,2.6l0,0
			c-1.3,0.7-2.4,1.6-3.7,2.4l0,0c-1.6,1.1-3.3,2-4.9,3.1c-4.4,2.6-9,4.8-13.7,6.8c-3.5,1.5-7.1,2.7-11,3.8c-1.3,0.4-2.6,0.7-3.7,1.1
			c-10.1,2.7-20.7,4.2-31.6,4.2c-0.9,0-1.8,0-2.7,0c-1.3,0-2.4,0-3.7-0.2c-2-0.2-3.8-0.2-5.9-0.4c-0.2,0-0.4,0-0.5,0
			c-0.2,0-0.5,0-0.7,0c-1.8-0.2-3.8-0.4-5.7-0.7c-1.3-0.2-2.6-0.4-3.8-0.7c-0.7-0.2-1.5-0.4-2.2-0.4c-0.2,0-0.2,0-0.4,0
			c-0.5-0.2-1.3-0.2-1.8-0.4l0,0l0,0c-2-0.4-3.8-0.9-5.9-1.5c-1.8-0.5-3.8-1.1-5.7-1.8c-0.9-0.4-1.8-0.7-2.7-0.9l0,0l0,0
			c-0.9-0.4-1.8-0.7-2.7-1.1l0,0l0,0c-0.9-0.4-1.8-0.7-2.7-1.1l0,0l0,0c-0.7-0.4-1.3-0.5-2-0.9c-1.3-0.5-2.6-1.3-4-1.8
			c-0.7-0.4-1.3-0.5-2-0.9l0,0l0,0c-0.4-0.2-0.9-0.4-1.3-0.7c-0.4-0.2-0.9-0.4-1.3-0.7l0,0l0,0c-0.9-0.4-1.6-0.9-2.6-1.5
			c-0.9-0.5-1.6-0.9-2.6-1.5l0,0l0,0c-0.2-0.2-0.4-0.2-0.5-0.4c-1.3-0.7-2.6-1.6-3.8-2.4c-0.2-0.2-0.4-0.2-0.5-0.4l0,0l0,0
			c-0.4-0.2-0.7-0.5-1.1-0.7c-0.4-0.4-0.9-0.5-1.3-0.9c-0.2-0.2-0.4-0.2-0.5-0.4c-0.5-0.4-1.1-0.9-1.8-1.3c-0.4-0.4-0.7-0.5-1.1-0.9
			c-0.4-0.2-0.7-0.5-1.1-0.9l0,0c-0.4-0.4-0.7-0.5-1.1-0.9c-2.6-2-5.1-4.4-7.5-6.6l0,0c-4.2-4-8-8.2-11.7-12.8
			c-1.8-2.2-3.5-4.6-5.1-6.9c-1.1-1.6-2.2-3.3-3.1-4.9c-0.5-0.9-1.1-1.6-1.5-2.6c-0.5-0.9-0.9-1.6-1.5-2.6c-0.4-0.7-0.7-1.5-1.1-2.2
			c-1.1-2-2-4-2.9-6.2c-0.4-0.7-0.7-1.5-0.9-2.2c-0.4-0.9-0.7-1.8-1.1-2.7c-0.4-0.7-0.5-1.6-0.9-2.4c0-0.2-0.2-0.4-0.2-0.5
			c-0.9-2.7-1.8-5.5-2.6-8.2c-1.5-4.8-2.4-9.7-3.1-14.6c-0.9-6-1.5-12.1-1.5-18.3c0-10.4,1.3-20.5,3.8-30.2l0,0
			c1.5-6,3.5-11.9,6-17.4c0.5-1.1,0.9-2.2,1.5-3.3c1.1-2.2,2.2-4.4,3.3-6.4c5.9-10.6,13.2-20.3,21.8-28.7
			c5.1-5.1,10.8-9.7,16.8-13.7l0,0c1.6-1.1,3.3-2.2,4.9-3.1c2.6-1.5,5.1-2.9,7.7-4.2c1.3-0.7,2.6-1.3,4-1.8c1.3-0.5,2.7-1.3,4-1.8
			c14.4-6,30.4-9.5,47-9.5c33.3,0,63.5,13.5,85.2,35.3c0.7,0.7,1.5,1.3,2,2c0.7,0.7,1.5,1.6,2.2,2.4c2.2,2.4,4.2,4.9,6.2,7.5
			c2,2.6,3.8,5.3,5.7,8c0.5,0.9,1.1,1.8,1.8,2.7c1.5,2.6,2.9,5.1,4.2,7.7c3.5,6.9,6.4,14.3,8.6,21.9c0.5,1.8,1.1,3.8,1.5,5.9
			c2,8.8,3.1,17.9,3.1,27.2S369.4,268.3,367.4,277.1z"/>
		<path class="st4" d="M435.6,249.8c0,21-3.5,41.1-9.9,60c-0.5,1.6-1.1,3.1-1.6,4.8c-1.1,3.1-2.4,6.2-3.7,9.1
			c-5.3,12.1-11.7,23.6-19.4,34.2c-1.8,2.6-3.8,5.3-5.9,7.7c-7.1,9-15,17.2-23.6,24.5l0,0c-0.9,0.7-1.6,1.5-2.6,2.2
			c-1.6,1.5-3.5,2.7-5.1,4.2c-0.9,0.7-1.8,1.5-2.7,2c-1.1,0.9-2.4,1.8-3.7,2.6c-2.4,1.6-4.9,3.5-7.3,4.9c-1.3,0.7-2.6,1.6-3.8,2.4
			c-2.6,1.5-5.1,3.1-7.7,4.4c-23.8,13-50.8,20.8-79.6,22.1c93.3-4.9,167.3-86.1,167.3-185.4S352.4,68.9,259.1,64
			C357.2,68.9,435.6,150.1,435.6,249.8z"/>
		<path class="st5" d="M239.6,435.1c-28.2-1.5-54.7-9.3-78.3-22.1c-2.6-1.5-5.3-2.9-7.7-4.4c-1.3-0.7-2.6-1.6-3.8-2.4
			c-2.6-1.6-4.9-3.3-7.3-4.9c-1.3-0.9-2.4-1.8-3.7-2.6c-0.9-0.7-1.8-1.3-2.6-2c-1.8-1.5-3.5-2.7-5.3-4.2c-0.9-0.7-1.6-1.5-2.6-2.2
			l0,0c-8.6-7.5-16.5-15.7-23.6-24.5c-2-2.6-4-5.1-5.9-7.7c-7.5-10.6-14.1-21.9-19.4-34c-1.3-2.9-2.6-6-3.7-9.1
			c-0.5-1.6-1.1-3.1-1.6-4.8c-6.4-18.8-9.9-39.1-9.9-60c0-99.3,78.1-180.5,176.1-185.4c-93.3,4.8-167.2,85.8-167.2,185.1
			C73.3,348.8,146.9,429.6,239.6,435.1z"/>
		<path class="st6" d="M317.8,288.4c-0.2,0.4-0.5,0.7-0.9,0.9c-5.9-8.8-11.5-17.9-21.4-23.2c4-0.5,8.2-1.1,11.9,1.3
			c2.9,2,5.9,3.8,9.5,1.6c0.5-0.4,1.3-0.2,1.5,0.5C320.6,276,320.8,282.2,317.8,288.4z"/>
		<path class="st6" d="M426.3,249.8c0-2.9,0-5.9-0.2-8.8c0-0.2,0-0.4,0-0.5c0-1.3-0.2-2.7-0.2-4c0-0.2,0-0.4,0-0.5
			c0-0.5,0-0.9-0.2-1.5c0-0.9-0.2-1.8-0.2-2.9c0-0.2,0-0.2,0-0.4c-0.2-1.3-0.2-2.6-0.4-4c-0.2-1.3-0.2-2.4-0.4-3.5
			c0-0.4-0.2-0.7-0.2-1.1c0-0.2,0-0.4-0.2-0.5c-0.4-2.9-0.9-5.7-1.5-8.4c0-0.2,0-0.2,0-0.4c-0.2-1.1-0.4-2-0.5-2.9
			c0-0.4-0.2-0.9-0.2-1.3s-0.2-0.5-0.2-0.9c-0.2-1.1-0.4-2-0.7-3.1c-0.2-1.1-0.5-2-0.7-2.9c-0.2-0.5-0.2-1.1-0.4-1.6
			c-0.4-1.3-0.7-2.7-1.1-4v-0.2c-0.7-2.7-1.6-5.5-2.6-8.2c-0.4-1.5-0.9-2.7-1.5-4c-0.5-1.5-0.9-2.7-1.5-4c-1.1-2.7-2.2-5.3-3.3-8
			c-0.5-1.3-1.1-2.6-1.8-4c-1.3-2.6-2.6-5.1-3.8-7.7s-2.7-5.1-4.2-7.5c-1.5-2.6-2.9-4.9-4.6-7.3c-0.7-1.1-1.5-2.4-2.4-3.5
			c-1.5-2.2-3.1-4.6-4.8-6.8l-0.2-0.2c-0.9-1.1-1.6-2.2-2.6-3.3c-0.9-1.3-1.8-2.4-2.9-3.7c-0.7-0.9-1.6-2-2.6-2.9
			c-0.5-0.7-1.3-1.5-1.8-2c-0.7-0.9-1.6-1.8-2.4-2.6c-0.7-0.9-1.6-1.6-2.4-2.6c0-0.2-0.2-0.2-0.2-0.2c-0.9-0.9-1.8-2-2.9-2.9
			c-0.2-0.2-0.4-0.4-0.5-0.5c-0.7-0.9-1.6-1.6-2.4-2.4c-0.4-0.4-0.5-0.5-0.9-0.9c-0.7-0.7-1.6-1.5-2.4-2.2c-0.4-0.4-0.7-0.7-1.1-0.9
			c-0.7-0.5-1.5-1.3-2.2-1.8c-0.4-0.4-0.7-0.7-1.1-1.1c-0.7-0.7-1.6-1.3-2.4-2c-2.6-2.2-5.3-4.2-8-6.2c-1.1-0.9-2.2-1.6-3.5-2.4
			s-2.4-1.6-3.5-2.4c-1.1-0.7-2.4-1.5-3.5-2.2c-1.1-0.7-2.4-1.5-3.7-2.2c-1.3-0.7-2.4-1.5-3.7-2c0,0,0,0-0.2,0
			c-1.1-0.5-2.4-1.3-3.5-1.8c-0.2,0-0.2-0.2-0.4-0.2c-1.1-0.5-2.2-1.1-3.3-1.6c-0.4-0.2-0.5-0.4-0.9-0.4c-1.1-0.5-2-0.9-3.1-1.5
			l-0.2-0.2c-1.1-0.5-2.2-0.9-3.3-1.5c-0.5-0.2-0.9-0.4-1.5-0.5c-0.9-0.4-1.8-0.7-2.7-1.1c-4.6-1.8-9.1-3.5-13.7-4.9
			c-0.9-0.4-2-0.5-2.9-0.9c-0.2,0-0.4-0.2-0.5-0.2c-1.1-0.4-2.4-0.7-3.5-0.9c-1.3-0.4-2.6-0.5-3.8-0.9c-1.1-0.2-2.2-0.5-3.3-0.7
			c-0.2,0-0.5-0.2-0.7-0.2c-0.9-0.2-1.8-0.4-2.7-0.5c-1.1-0.2-2.4-0.4-3.5-0.5c0,0,0,0-0.2,0c-1.5-0.4-3.1-0.5-4.6-0.7
			c-1.6-0.2-3.1-0.4-4.8-0.5c-1.5-0.2-3.1-0.4-4.8-0.4s-3.1-0.2-4.8-0.4c0,0,0,0-0.2,0c-1.5,0-2.7-0.2-4.2-0.2l0,0
			c-1.6,0-3.3,0-4.9,0c-2.9,0-6,0-9,0.2h-0.2c-0.2,0-0.2,0-0.4,0s-0.2,0-0.4,0c-0.4,0-0.7,0-0.9,0c-3.7,0.2-7.5,0.5-11.2,1.1
			c-1.3,0.2-2.7,0.4-4,0.5c-1.1,0.2-2.2,0.4-3.3,0.5c-0.4,0-0.7,0.2-1.1,0.2c-0.7,0.2-1.5,0.2-2,0.4c-0.9,0.2-1.6,0.4-2.6,0.5
			c-0.4,0-0.7,0.2-1.1,0.2c-0.9,0.2-1.8,0.4-2.9,0.5c-0.5,0.2-0.9,0.2-1.5,0.4c-0.9,0.2-1.8,0.4-2.7,0.7c-0.4,0.2-0.7,0.2-1.1,0.4
			c-0.7,0.2-1.6,0.4-2.4,0.7c-0.9,0.2-1.6,0.5-2.6,0.7c-0.4,0-0.5,0.2-0.9,0.2c-0.9,0.2-1.6,0.5-2.6,0.7c-0.5,0.2-1.3,0.4-1.8,0.5
			c-0.7,0.2-1.3,0.4-2,0.7c-1.1,0.4-2.4,0.9-3.5,1.3c-0.9,0.4-1.8,0.7-2.7,1.1c-9.7,3.8-18.8,8.4-27.6,13.9c-0.9,0.5-2,1.3-2.9,1.8
			c-0.2,0-0.4,0.2-0.5,0.4c-0.9,0.5-1.6,1.1-2.6,1.6c-0.4,0.4-0.9,0.5-1.3,0.9c-0.9,0.5-1.6,1.1-2.4,1.8c-0.2,0.2-0.4,0.4-0.7,0.5
			c-0.9,0.5-1.6,1.3-2.6,1.8c-0.4,0.2-0.5,0.4-0.9,0.7c-0.7,0.5-1.5,1.1-2.2,1.6c-1.5,1.1-2.7,2.2-4,3.3c-1.1,0.9-2,1.8-3.1,2.7
			c-0.9,0.9-2,1.8-2.9,2.7c-2.2,1.8-4.2,3.8-6.2,5.9c-1.1,1.3-2.4,2.4-3.5,3.7c-0.2,0.2-0.4,0.4-0.5,0.5c-0.7,0.7-1.5,1.5-2,2.2
			c-0.2,0.2-0.2,0.4-0.4,0.4c-0.4,0.4-0.7,0.9-1.1,1.3c-0.2,0.2-0.4,0.4-0.5,0.5c-0.5,0.5-0.9,1.1-1.5,1.6c-0.4,0.5-0.9,1.1-1.3,1.6
			l-0.2,0.2c-1.8,2.2-3.5,4.4-5.3,6.6c0,0,0,0,0,0.2c-0.2,0.2-0.4,0.5-0.5,0.7c-0.4,0.5-0.7,0.9-1.1,1.5c-0.5,0.7-1.1,1.5-1.6,2.4
			c-0.2,0.4-0.5,0.7-0.7,1.1c-0.7,1.1-1.5,2.2-2.2,3.3c-0.4,0.5-0.7,1.1-1.1,1.6c-0.7,1.3-1.5,2.4-2.2,3.7c-1.5,2.4-2.9,4.9-4.4,7.3
			c-0.7,1.3-1.5,2.6-2,3.8c-0.7,1.3-1.3,2.6-2,3.8c-1.3,2.6-2.6,5.1-3.7,7.9c-1.1,2.6-2.2,5.3-3.3,8c-1.1,2.7-2,5.5-2.9,8.2
			c-0.4,1.5-0.9,2.7-1.3,4.2c-0.4,1.5-0.9,2.7-1.3,4.2c-0.2,0.9-0.5,1.8-0.7,2.7c-0.2,0.4-0.2,0.7-0.2,1.1c0,0.2,0,0.2-0.2,0.4v0.2
			c0,0.2-0.2,0.5-0.2,0.7c-0.4,1.1-0.5,2-0.7,3.1c0,0.2,0,0.4-0.2,0.5c-0.4,1.5-0.7,2.9-0.9,4.4c-0.4,1.3-0.5,2.7-0.7,4
			c-0.2,1.1-0.4,2.4-0.5,3.5c-0.2,0.7-0.2,1.5-0.4,2.4c-0.2,0.5-0.2,1.1-0.2,1.8c-0.2,0.7-0.2,1.5-0.4,2.2c-0.2,1.3-0.4,2.4-0.4,3.7
			c-0.2,1.5-0.4,2.9-0.5,4.6c-0.2,1.3-0.2,2.4-0.4,3.7c0,1.1-0.2,2.2-0.2,3.3c0,0.2,0,0.4,0,0.5c0,0.9,0,1.8-0.2,2.6
			c0,0.9,0,1.6-0.2,2.6c0,1.8,0,3.8,0,5.9c0,1.1,0,2.4,0,3.5v0.4c0,0.7,0,1.5,0,2.4c0,0.4,0,0.5,0,0.9s0,0.9,0,1.3
			c0,0.5,0,1.1,0,1.6c0,1.3,0.2,2.7,0.2,4c0,0.2,0,0.2,0,0.4c0,0.7,0.2,1.5,0.2,2.2c0,0.4,0,0.5,0,0.7c0,1.1,0.2,2.2,0.4,3.5
			c0,0.2,0,0.4,0,0.7v0.2c0,0.7,0.2,1.3,0.2,2c0,0.2,0,0.4,0,0.5c0.2,0.7,0.2,1.5,0.4,2.2c0,0.4,0.2,0.7,0.2,1.3
			c0.2,1.5,0.4,2.7,0.5,4.2c0,0.2,0,0.2,0,0.4c0.2,1.5,0.5,2.7,0.7,4.2c0.2,1.5,0.5,2.9,0.9,4.4c0.4,1.5,0.7,2.9,0.9,4.4l0,0
			c0.4,1.5,0.7,2.7,1.1,4.2l0,0l0,0c0.7,2.9,1.5,5.7,2.4,8.4c0.2,0.7,0.4,1.5,0.7,2s0.4,1.5,0.7,2c0.9,2.7,1.8,5.5,2.9,8.2l0,0
			c0.5,1.3,1.1,2.7,1.6,4l0,0c0.2,0.5,0.4,1.1,0.7,1.6c0.4,1.1,0.9,2.2,1.5,3.1c0.2,0.5,0.5,1.1,0.7,1.6c0.2,0.5,0.4,0.9,0.7,1.5
			l0,0c0.5,1.3,1.3,2.6,1.8,3.8l0,0c0.5,1.3,1.3,2.6,2,3.8l0,0c0.7,1.3,1.3,2.6,2,3.7l0,0c0.7,1.3,1.5,2.6,2.2,3.7l0,0
			c0.7,1.3,1.5,2.4,2.2,3.7l0,0c0.7,1.3,1.5,2.4,2.2,3.7l0,0c0.7,1.3,1.5,2.4,2.4,3.5l0,0c1.6,2.4,3.3,4.6,4.9,6.9l0,0
			c0.4,0.5,0.9,1.1,1.3,1.6s0.9,1.1,1.3,1.6c0.9,1.1,1.8,2.2,2.6,3.3l0,0c0.9,1.1,1.8,2.2,2.7,3.3c0.9,1.1,1.8,2.2,2.7,3.1l0,0
			c1.8,2,3.8,4,5.9,6c1.1,1.3,2.4,2.4,3.7,3.5c0.2,0.2,0.2,0.4,0.4,0.4c0.9,0.9,1.8,1.6,2.7,2.6c0.5,0.5,1.1,1.1,1.8,1.6
			c2.2,2,4.6,4,6.9,5.9c1.1,0.9,2.2,1.6,3.3,2.6l0,0c1.1,0.9,2.2,1.6,3.3,2.6c2.2,1.6,4.6,3.3,6.9,4.8c1.1,0.7,2.4,1.5,3.5,2.2l0,0
			c0.5,0.4,0.9,0.5,1.5,0.9l0,0c1.1,0.7,2.4,1.5,3.5,2c1.5,0.9,2.9,1.6,4.4,2.4c0,0,0.2,0.2,0.4,0.2c0.7,0.4,1.5,0.7,2,1.1
			c0.9,0.4,1.6,0.9,2.6,1.3c0.2,0.2,0.4,0.2,0.5,0.2c2.2,1.1,4.4,2,6.6,3.1c0.4,0.2,0.5,0.2,0.9,0.4l0,0c0.5,0.4,1.3,0.5,1.8,0.9
			c0.4,0.2,0.7,0.4,1.1,0.4c0.4,0.2,0.5,0.2,0.9,0.4l0,0c1.3,0.5,2.6,1.1,3.8,1.5l0,0c0.5,0.2,1.1,0.4,1.6,0.5c0,0,0.2,0,0.4,0.2
			c0.7,0.2,1.3,0.5,2,0.7c0.4,0.2,0.7,0.2,1.1,0.4c0.9,0.4,2,0.7,2.9,0.9l0,0c2.7,0.9,5.3,1.6,8,2.4c2.7,0.7,5.5,1.5,8.2,2
			c1.6,0.4,3.3,0.7,4.8,0.9s2.7,0.5,4,0.7c2.6,0.4,5.3,0.7,7.9,1.1c2.9,0.4,5.7,0.5,8.6,0.7l0,0c1.5,0,2.9,0.2,4.4,0.2
			c1.1,0,2,0,2.9,0l0,0c0.9,0,1.8,0,2.7,0c0.5,0,0.9,0,1.5,0l0,0c0.5,0,0.9,0,1.5,0c0.2,0,0.2,0,0.4,0c0.7,0,1.5,0,2.4,0
			c1.1,0,2.4,0,3.5-0.2l0,0c0.2,0,0.2,0,0.4,0c0.9,0,1.8-0.2,2.7-0.2c2-0.2,3.8-0.4,5.9-0.5c0.5,0,1.1-0.2,1.8-0.2
			c1.1-0.2,2.2-0.2,3.3-0.4c0.2,0,0.4,0,0.7,0c1.1-0.2,2.2-0.4,3.5-0.5c0.7-0.2,1.5-0.2,2.2-0.4c0.5,0,1.3-0.2,1.8-0.4
			c0.7-0.2,1.5-0.4,2.4-0.4c0.9-0.2,1.8-0.4,2.6-0.5c0.5-0.2,1.3-0.2,1.8-0.4c0.7-0.2,1.5-0.4,2.4-0.5c0.7-0.2,1.3-0.4,1.8-0.5
			c0.9-0.2,1.8-0.5,2.7-0.7c3.3-0.9,6.8-2,10.1-3.1c1.5-0.5,2.9-1.1,4.4-1.6s2.7-1.1,4.2-1.6c1.8-0.7,3.5-1.5,5.3-2.2
			c1.1-0.4,2.2-0.9,3.1-1.5h0.2c1.1-0.5,2.2-0.9,3.1-1.5c0.5-0.4,1.3-0.5,1.8-0.9c0.9-0.4,1.6-0.9,2.6-1.3c1.1-0.5,2.2-1.1,3.3-1.8
			c0.7-0.4,1.5-0.9,2.2-1.3c0.5-0.4,1.1-0.5,1.6-0.9c0.7-0.4,1.5-0.9,2-1.3c0.5-0.4,1.1-0.7,1.6-1.1c0.7-0.5,1.5-0.9,2.4-1.5
			c0,0,0.2,0,0.2-0.2c1.1-0.7,2.2-1.5,3.3-2.2c5.9-4,11.3-8.2,16.6-13c0.9-0.7,1.8-1.5,2.6-2.4c0.2-0.2,0.4-0.4,0.7-0.5
			c0.9-0.7,1.6-1.5,2.4-2.2c0.2-0.2,0.5-0.4,0.7-0.7c0.7-0.7,1.5-1.5,2.2-2c0.4-0.4,0.9-0.9,1.3-1.3c0.5-0.5,1.3-1.3,1.8-2
			c0.2-0.2,0.4-0.5,0.7-0.7c0.9-0.9,1.6-1.6,2.4-2.6c0-0.2,0.2-0.2,0.2-0.4c0.9-0.9,1.8-2,2.6-2.9c1.8-2.2,3.7-4.4,5.3-6.6
			c0.9-1.1,1.6-2.2,2.6-3.3l0.2-0.2c1.6-2.2,3.3-4.4,4.8-6.8c0.7-1.1,1.6-2.4,2.4-3.5c1.6-2.4,3.1-4.8,4.6-7.3
			c1.5-2.4,2.7-4.9,4.2-7.5c1.3-2.6,2.6-5.1,3.8-7.7c0.5-1.3,1.3-2.6,1.8-4c1.1-2.6,2.2-5.3,3.3-8c0.5-1.3,1.1-2.7,1.5-4
			c0.5-1.3,0.9-2.7,1.5-4c0.9-2.7,1.8-5.5,2.6-8.2c0,0,0,0,0-0.2c0.4-1.3,0.7-2.7,1.1-4c0.2-0.5,0.2-1.1,0.4-1.5
			c0.2-0.9,0.5-2,0.7-2.9c0.2-1.1,0.5-2,0.7-3.1c0-0.4,0.2-0.5,0.2-0.9s0.2-0.9,0.2-1.3c0.2-0.9,0.4-2,0.5-2.9c0-0.2,0-0.2,0-0.4
			c0.5-2.7,0.9-5.7,1.5-8.4c0-0.2,0-0.4,0.2-0.7c0-0.4,0-0.7,0.2-1.1c0.2-1.1,0.4-2.4,0.4-3.7c0.2-1.3,0.4-2.6,0.4-4
			c0-0.2,0-0.2,0-0.4c0-0.9,0.2-1.8,0.2-2.9c0-0.5,0-0.9,0.2-1.5c0-0.2,0-0.4,0-0.5c0-1.3,0.2-2.7,0.2-4c0-0.2,0-0.4,0-0.5
			C426.1,255.7,426.3,252.7,426.3,249.8z M344.4,237.6c-0.5-2.6-1.1-5.1-2.4-7.1c-1.1-1.6-3.5-2.6-5.5-3.7c-0.4-0.2-1.5,0.2-2,0.7
			c-5.9,4.2-9.3,9.9-11.2,16.8c-2,7.9-0.2,15.2,1.8,22.9c1.5,5.5,2.6,11.3,3.5,17c0.4,2.2,0.7,6,0.5,8.2c-0.4,9.9-2.2,19.2-6.9,28.5
			c-0.5-2.6-0.9-4.8-1.5-6.8c-1.3-4.2-3.1-8-6.6-10.8c-2.2-1.8-4.4-2.9-7.3-1.5c-4.6,2-9.5,3.1-17.6,15.5
			c-8.2,13.2-12.4,27.4-16.1,42.4c-1.3-0.5-2.6-1.3-3.8-1.8c-10.1-4.6-19.8-9.7-29.3-15.4c-13-7.9-25.6-16.1-37.3-25.8
			c-0.4-0.2-0.5-0.4-0.9-0.7c-7.3-6.2-14.6-12.6-21-19.6c-7.3-8-13.7-16.8-20.5-25.2c0.2-0.2,0.4-0.5,0.5-0.7
			c2.7-0.4,5.5-0.7,8.2-0.9c6.8-0.4,13.5-0.7,20.3-0.9c6-0.4,11.9-0.7,17.9-0.9c13.2-0.2,26.5-0.7,39.7-0.4
			c8.6,0.2,17.2,0.5,25.4,3.7c8,3.1,15.5,7.1,22.7,12.1c3.7,2.6,7.1,5.5,10.6,8.2c0.2,0,0.4,0,0.5,0c-0.2-0.2-0.2-0.4-0.4-0.4
			c-2.7-4.6-5.1-9.5-8.6-13.5c-4.2-4.8-9.3-8.8-14.3-12.8c-1.3-1.1-2.9-2.4-4.6-2.9c-4.8-1.5-6.2-5.3-7.5-9.3
			c-1.5-4.6-1.8-9.1-0.7-13.7c1.8-8.4,9-13,17-15.9c3.5-1.3,7.1-2,11-2.4c7.7-0.7,15.5-0.9,23.2-1.3c0.4,0,0.7,0,0.9-0.2
			c-0.4-0.2-0.5-0.5-0.9-0.7c-5.9-2-11.5-4.4-17.7-5.3c-2.2-0.4-4.6-0.4-6.8,0c-11,1.5-19.9,6.2-27.2,13.5
			c-3.3,3.3-6.2,7.1-9.3,10.4c-0.9,0.9-2.6,1.6-3.7,1.5c-11.5-2-23.2-3.7-34.4-7.5c-4.9-1.8-9.9-3.7-13.9-7.3
			c8,1.3,15.9,3.8,24.9,3.1c-6.8-2.4-13.2-3.8-19.2-8c9.7,1.8,18.5,4,28.3,4.4c-5.3-2.2-9.9-4-14.4-5.9c0-0.4,0.2-0.5,0.2-0.9h7.9
			c6.8,0,13.5,0.2,20.3,0c5.7-0.4,11.2-1.3,16.6-1.8c6.2-0.5,12.1-2.7,17.6-5.5c5.9-3.1,10.6-7.3,15.2-12.3c0.5-0.5,1.6-1.3,2.6-1.1
			c5.9,0.5,11.5,1.1,17.4,1.8c-4.6-3.3-9.9-4.8-15.9-5.3c2.4-2.9,5.3-4.6,8.6-5.1c8.2-1.6,15.7,0.2,22.7,5.1
			c6.9,4.9,11,11.7,12.1,19.9c1.1,8.4-0.4,16.6-4,24.3c-1.3,2.6-2.6,5.1-4.2,7.7C344.7,241.6,344.7,239.6,344.4,237.6z"/>
		<path class="st6" d="M317.8,288.4c-0.2,0.4-0.5,0.7-0.9,0.9c-5.9-8.8-11.5-17.9-21.4-23.2c4-0.5,8.2-1.1,11.9,1.3
			c2.9,2,5.9,3.8,9.5,1.6c0.5-0.4,1.3-0.2,1.5,0.5C320.6,276,320.8,282.2,317.8,288.4z"/>
		<path class="st6" d="M367.4,222.6c-0.4-2-0.9-3.8-1.5-5.9c-2.2-7.7-5.1-15-8.6-21.9c-1.3-2.6-2.7-5.1-4.2-7.7
			c-0.5-0.9-1.1-1.8-1.8-2.7c-1.8-2.7-3.7-5.5-5.7-8c-2-2.6-4-5.1-6.2-7.5c-0.7-0.7-1.5-1.6-2.2-2.4c-0.7-0.7-1.3-1.5-2-2
			c-21.8-21.8-51.9-35.3-85.2-35.3c-16.6,0-32.6,3.5-47,9.5c-1.3,0.5-2.7,1.1-4,1.8c-1.3,0.5-2.6,1.3-4,1.8
			c-2.6,1.3-5.1,2.7-7.7,4.2c-1.6,1.1-3.3,2-4.9,3.1l0,0c-6,4-11.7,8.6-16.8,13.7c-8.6,8.4-15.9,18.1-21.8,28.7
			c-1.1,2.2-2.2,4.4-3.3,6.4c-0.5,1.1-0.9,2.2-1.5,3.3c-2.4,5.7-4.4,11.3-6,17.4l0,0c-2.4,9.7-3.8,19.8-3.8,30.2
			c0,6.2,0.5,12.4,1.5,18.3c0.7,4.9,1.8,9.9,3.1,14.6c0.7,2.7,1.6,5.5,2.6,8.2c0,0.2,0.2,0.4,0.2,0.5c0.4,0.7,0.5,1.6,0.9,2.4
			c0.4,0.9,0.7,1.8,1.1,2.7c0.4,0.7,0.5,1.5,0.9,2.2c0.9,2,1.8,4.2,2.9,6.2c0.4,0.7,0.7,1.5,1.1,2.2c0.4,0.9,0.9,1.6,1.5,2.6
			s0.9,1.6,1.5,2.6c0.9,1.6,2,3.3,3.1,4.9c1.6,2.4,3.3,4.8,5.1,6.9c2.9,3.8,6.2,7.3,9.5,10.8c1.3,1.3,2.7,2.7,4.2,4
			c1.5,1.3,2.9,2.6,4.4,3.8c1.1,0.9,2.2,1.8,3.5,2.7c0.4,0.4,0.7,0.5,1.1,0.9c0.5,0.4,1.3,0.9,1.8,1.3s1.3,0.9,1.8,1.3
			c0.4,0.2,0.7,0.5,1.1,0.7l0,0c0.2,0.2,0.4,0.2,0.5,0.4c1.3,0.9,2.6,1.6,3.8,2.4c0.2,0.2,0.4,0.2,0.5,0.4l0,0
			c0.9,0.5,1.6,0.9,2.6,1.5s1.6,0.9,2.6,1.5l0,0c0.4,0.2,0.9,0.5,1.3,0.7s0.9,0.4,1.3,0.7l0,0c0.7,0.4,1.3,0.7,2,0.9
			c1.3,0.5,2.6,1.3,4,1.8c0.7,0.4,1.3,0.5,2,0.9l0,0c0.9,0.4,1.8,0.7,2.7,1.1l0,0l2.7,1.1l0,0c0.9,0.4,1.8,0.7,2.7,0.9
			c1.8,0.5,3.8,1.3,5.7,1.8c1.8,0.5,3.8,1.1,5.9,1.5l0,0c0.5,0.2,1.3,0.4,1.8,0.4c0.2,0,0.2,0,0.4,0c0.2,0,0.5,0.2,0.7,0.2
			c1.6,0.4,3.5,0.7,5.1,0.9c0.7,0.2,1.5,0.2,2.4,0.4c1.1,0.2,2.2,0.4,3.3,0.4c0.4,0,0.7,0,1.3,0.2c0.5,0,0.9,0,1.5,0.2
			c1.5,0.2,2.9,0.2,4.2,0.4c1.3,0,2.4,0.2,3.7,0.2c0.9,0,1.8,0,2.7,0c11,0,21.6-1.5,31.6-4.2c1.3-0.4,2.6-0.7,3.7-1.1
			c3.7-1.1,7.3-2.4,11-3.8c4.8-2,9.3-4.2,13.7-6.8c1.6-0.9,3.3-2,4.9-3.1l0,0c1.3-0.7,2.4-1.6,3.7-2.4l0,0c1.1-0.9,2.4-1.6,3.5-2.6
			l0,0c1.5-1.1,3.1-2.4,4.6-3.7s2.9-2.6,4.4-3.8s2.7-2.6,4.2-4c0.7-0.7,1.3-1.5,2-2c0.7-0.7,1.5-1.6,2.2-2.4
			c2.2-2.4,4.2-4.9,6.2-7.5c2-2.6,3.8-5.3,5.7-8c0.5-0.9,1.1-1.8,1.8-2.7c1.5-2.6,2.9-5.1,4.2-7.7c3.5-6.9,6.4-14.3,8.6-21.9
			c0.5-1.8,1.1-3.8,1.5-5.9c2-8.8,3.1-17.9,3.1-27.2C370,239.8,369.4,231.3,367.4,222.6z M349.1,235.9c-1.3,2.6-2.6,5.1-4.2,7.7
			c-0.2-2,0-4-0.4-5.9c-0.5-2.6-1.1-5.1-2.4-7.1c-1.1-1.6-3.5-2.6-5.5-3.7c-0.4-0.2-1.5,0.2-2,0.7c-5.9,4.2-9.3,9.9-11.2,16.8
			c-2,7.9-0.2,15.2,1.8,22.9c1.5,5.5,2.6,11.3,3.5,17c0.4,2.2,0.7,6,0.5,8.2c-0.4,9.9-2.2,19.2-6.9,28.5c-0.5-2.6-0.9-4.8-1.5-6.8
			c-1.3-4.2-3.1-8-6.6-10.8c-2.2-1.8-4.4-2.9-7.3-1.5c-4.6,2-9.5,3.1-17.6,15.5c-8.2,13.2-12.4,27.4-16.1,42.4
			c-1.3-0.5-2.6-1.3-3.8-1.8c-10.1-4.6-19.8-9.7-29.3-15.4c-13-7.9-25.6-16.1-37.3-25.8c-0.4-0.2-0.5-0.4-0.9-0.7
			c-7.3-6.2-14.6-12.6-21-19.6c-7.3-8-13.7-16.8-20.5-25.2c0.2-0.2,0.4-0.5,0.5-0.7c2.7-0.4,5.5-0.7,8.2-0.9
			c6.8-0.4,13.5-0.7,20.3-0.9c6-0.4,11.9-0.7,17.9-0.9c13.2-0.2,26.5-0.7,39.7-0.4c8.6,0.2,17.2,0.5,25.4,3.7
			c8,3.1,15.5,7.1,22.7,12.1c3.7,2.6,7.1,5.5,10.6,8.2c0.2,0,0.4,0,0.5,0c-0.2-0.2-0.2-0.4-0.4-0.4c-2.7-4.6-5.1-9.5-8.6-13.5
			c-4.2-4.8-9.3-8.8-14.3-12.8c-1.3-1.1-2.9-2.4-4.6-2.9c-4.8-1.5-6.2-5.3-7.5-9.3c-1.5-4.6-1.8-9.1-0.7-13.7c1.8-8.4,9-13,17-15.9
			c3.5-1.3,7.1-2,11-2.4c7.7-0.7,15.5-0.9,23.2-1.3c0.4,0,0.7,0,0.9-0.2c-0.4-0.2-0.5-0.5-0.9-0.7c-5.9-2-11.5-4.4-17.7-5.3
			c-2.2-0.4-4.6-0.4-6.8,0c-11,1.5-19.9,6.2-27.2,13.5c-3.3,3.3-6.2,7.1-9.3,10.4c-0.9,0.9-2.6,1.6-3.7,1.5
			c-11.5-2-23.2-3.7-34.4-7.5c-4.9-1.8-9.9-3.7-13.9-7.3c8,1.3,15.9,3.8,24.9,3.1c-6.8-2.4-13.2-3.8-19.2-8c9.7,1.8,18.5,4,28.3,4.4
			c-5.3-2.2-9.9-4-14.4-5.9c0-0.4,0.2-0.5,0.2-0.9h7.9c6.8,0,13.5,0.2,20.3,0c5.7-0.4,11.2-1.3,16.6-1.8c6.2-0.5,12.1-2.7,17.6-5.5
			c5.9-3.1,10.6-7.3,15.2-12.3c0.5-0.5,1.6-1.3,2.6-1.1c5.9,0.5,11.5,1.1,17.4,1.8c-4.6-3.3-9.9-4.8-15.9-5.3
			c2.4-2.9,5.3-4.6,8.6-5.1c8.2-1.6,15.7,0.2,22.7,5.1c6.9,4.9,11,11.7,12.1,19.9C354.2,219.8,352.8,228.1,349.1,235.9z"/>
	</g>
	<path class="st7" d="M317.8,288.4c-0.2,0.4-0.5,0.7-0.9,0.9c-5.9-8.8-11.5-17.9-21.4-23.2c4-0.5,8.2-1.1,11.9,1.3
		c2.9,2,5.9,3.8,9.5,1.6c0.5-0.4,1.3-0.2,1.5,0.5C320.6,276,320.8,282.2,317.8,288.4z"/>
	<g>
		<path class="st0" d="M203.4,316.6c-0.2,0.2-0.2,0.2-0.4,0.4C203,316.9,203.2,316.8,203.4,316.6z"/>
		<path d="M353.1,211.6c-1.1-8.2-5.1-15-12.1-19.9c-6.9-4.9-14.4-6.8-22.7-5.1c-3.3,0.7-6,2.4-8.6,5.1c6,0.7,11.3,2,15.9,5.3
			c-5.9-0.5-11.5-1.3-17.4-1.8c-0.7,0-1.8,0.5-2.6,1.1c-4.4,4.8-9.1,9.1-15.2,12.3c-5.5,2.7-11.3,4.9-17.6,5.5
			c-5.5,0.5-11.2,1.5-16.6,1.8c-6.8,0.4-13.5,0-20.3,0h-7.9c0,0.4-0.2,0.5-0.2,0.9c4.6,1.8,9.1,3.7,14.4,5.9
			c-9.9-0.4-18.7-2.6-28.3-4.4c5.9,4.4,12.4,5.7,19.2,8c-9,0.7-16.8-2-24.9-3.1c4.2,3.7,9,5.5,13.9,7.3c11.2,3.8,22.9,5.5,34.4,7.5
			c1.1,0.2,2.9-0.5,3.7-1.5c3.3-3.5,6-7.1,9.3-10.4c7.3-7.5,16.5-12.3,27.2-13.5c2.2-0.4,4.6-0.4,6.8,0c6,0.9,11.9,3.3,17.7,5.3
			c0.4,0.2,0.5,0.5,0.9,0.7c-0.4,0-0.7,0-0.9,0.2c-7.7,0.4-15.5,0.5-23.2,1.3c-3.7,0.4-7.3,1.1-11,2.4c-8,2.9-15.2,7.5-17,15.9
			c-1.1,4.8-0.7,9.3,0.7,13.7c1.3,4,2.7,7.9,7.5,9.3c1.6,0.5,3.3,1.6,4.6,2.9c4.9,4.2,10.1,8,14.3,12.8c3.5,4,5.9,9,8.6,13.5
			c0.2,0.2,0.2,0.4,0.4,0.4c-0.2,0-0.4,0-0.5,0c-3.5-2.7-6.9-5.7-10.6-8.2c-7.1-4.9-14.6-9-22.7-12.1c-8.2-3.1-16.8-3.5-25.4-3.7
			c-13.2-0.4-26.5,0-39.7,0.4c-6,0.2-11.9,0.5-17.9,0.9c-6.8,0.4-13.5,0.5-20.3,0.9c-2.7,0.2-5.5,0.5-8.2,0.9
			c-0.2,0.2-0.4,0.5-0.5,0.7c6.8,8.4,13.2,17.4,20.5,25.2c6.4,7.1,13.7,13.5,21,19.6c0.4,0.2,0.5,0.5,0.9,0.7
			c11.7,9.7,24.1,17.9,37.3,25.8c9.3,5.7,19.2,10.6,29.3,15.4c1.3,0.5,2.6,1.1,3.8,1.8c3.5-15,7.7-29.1,16.1-42.4
			c7.9-12.6,12.8-13.5,17.6-15.5c2.9-1.3,5.1-0.2,7.3,1.5c3.5,2.7,5.3,6.6,6.6,10.8c0.5,2,0.9,4.2,1.5,6.8
			c4.8-9.3,6.6-18.7,6.9-28.5c0-2.4-0.2-6-0.5-8.2c-0.9-5.7-1.8-11.5-3.5-17c-2-7.5-3.8-15-1.8-22.9c1.8-6.9,5.3-12.6,11.2-16.8
			c0.5-0.4,1.6-0.9,2-0.7c2,1.1,4.4,2,5.5,3.7c1.5,2,1.8,4.8,2.4,7.1c0.4,1.8,0.4,4,0.4,5.9c1.6-2.6,2.9-5.1,4.2-7.7
			C352.8,228.1,354.2,219.8,353.1,211.6z M316.9,289.3c-5.9-8.8-11.5-17.9-21.4-23.2c4-0.5,8.2-1.1,11.9,1.3c2.9,2,5.9,3.8,9.5,1.6
			c0.5-0.4,1.3-0.2,1.5,0.5c2.2,6.2,2.4,12.4-0.5,18.7C317.5,288.8,317.1,289.1,316.9,289.3z"/>
		<path d="M169.9,182.7c0,0,2-2.2,3.3-2.9c6.8-3.5,14.1-5.7,21.6-6.9c3.5-0.5,6.9-0.9,10.6-1.5c0.7-0.2,1.5-0.4,1.8-0.9
			c2.7-4,7.5-3.8,11.3-4.6c2.7-0.5,5.3-1.1,8-1.3c11-0.9,22.1-1.6,33.1-1.5c7.9,0.2,15.9,0.7,23.8,2c11.3,1.8,22.1,5.1,31.6,11.9
			c0.7,0.5,1.3,1.1,1.8,2.2c-1.5-0.4-2.9-0.9-4.6-1.3c-7.3-2-14.8-4.2-22.1-5.9c-6.4-1.5-12.8-2.2-19.2-2.6
			c-11.7-0.5-23.4-0.9-35.1-1.1c-5.5,0-11.2,0.5-16.6,0.9c-0.5,0-1.1,0.9-1.6,1.3c-1.8,1.1-3.7,2.6-5.7,3.5c-3.8,1.6-8,2.9-12.1,4.4
			c-0.7,0.2-1.1,0.9-1.6,1.5c0.2,0.2,0.2,0.4,0.4,0.5c2.6-0.4,5.3-0.7,7.9-1.1c4.6-0.5,9.1-1.5,13.7-1.8c5.5-0.4,11-0.7,16.6-0.5
			c10.2,0.4,20.5,1.5,30.7,3.7c9.5,2,18.8,5.3,27.8,9c1.6,0.7,1.8,1.8,0.7,2.9c-2.4,2.4-4.8,4.9-7.7,6.6c-7.1,4.2-15.2,6-23.4,6.2
			c-0.5,0-1.1,0-1.8,0c0-0.5,0-0.7,0-1.1c-0.2-1.3,0.5-2.7-1.1-3.7s-2.6,0.5-3.5,1.3c-2,1.5-4,1.3-5.7-0.9c-2-2.6-1.8-3.8,0.5-5.5
			c0.4-0.4,0.9-0.5,1.1-0.9c0.4-0.4,0.5-0.9,0-1.6c-0.4-0.7-1.6-1.1-2.6-1.1c-5.3,0.7-9.9,5.9-6.9,11.2c1.8,3.3,5.1,4.4,8.2,5.1
			c4,0.9,8.2,0.9,12.4,1.5c-2.4,0.5-4.6,1.5-6.9,1.5c-5.9,0.2-11.5,0.5-17.2-1.5c-5.3-1.8-10.2-4.4-15-7.5c-1.1-0.7-2.9-0.7-4.4-0.5
			c-10.1,1.1-19.6,4-28.7,8.2c-3.1,1.5-6,3.3-9.5,5.1c2-4.8,5.1-7.9,8.6-10.6c11-8.2,23.4-13.9,36.6-19.4c-2.9-0.2-5.3-0.4-7.9-0.5
			c-2.6,0-4.9,0-7.5,0c-2.6,0-5.1,0.4-7.7,0.4c-6.9,0.2-12.4,4.2-18.1,7.3c-2.7,1.5-5.5,3.3-8,5.1c-11.2,7.7-21.8,16.3-26.7,29.1
			c0,0.2,0,0.2,0,0.7c6.9,0.5,13.5,2.7,19.8,6.6c-5.1,0-10.2,0-15.4,0c0,0.4-0.2,0.7-0.2,1.1c7.9,0.9,15.5,2.6,22.7,6.4
			c0,0.2-0.2,0.5-0.2,0.7c-1.1-0.2-2.2-0.5-3.5-0.5c-6.4-0.2-12.6,0.5-18.8,2c-7.1,1.6-15.2-0.7-18.3-7.9c-1.6-3.8-0.9-7.7,0.9-11.3
			c2.9-6.2,6.8-14.3,9.1-18.1C152.5,201.9,165.5,186.9,169.9,182.7z"/>
		<path d="M186.9,260.1c5.1-0.7,10.2-1.8,15.4-2.4c6-0.7,12.3-1.5,18.5-2c1.6-0.2,3.5,0,5.1,0c7.7-0.2,15.4-0.4,23-0.4
			c4.4,0,9,0.5,13.4,0.9c0.4,0,0.5,0.2,0.7,0.4c1.6,2.2,3.3,4.2,5.1,6.9c-3.8-0.2-7.3-0.4-10.6-0.7c-3.8-0.4-7.9-1.1-11.7-1.3
			c-7.1-0.5-14.4-1.1-21.6-1.5c-7.1-0.2-14.1-0.2-21.2-0.2c-5.3,0-10.6,0.4-15.9,0.7C186.9,260.4,186.9,260.2,186.9,260.1z"/>
	</g>
	<path class="st3" d="M267.6,286.6L267.6,286.6z"/>
</g>
</svg>
