<?xml version="1.0" encoding="utf-8"?>
<!-- Generator: Adobe Illustrator 28.2.0, SVG Export Plug-In . SVG Version: 6.00 Build 0)  -->
<svg version="1.1" id="Layer_1" xmlns="http://www.w3.org/2000/svg" xmlns:xlink="http://www.w3.org/1999/xlink" x="0px" y="0px"
	 viewBox="0 0 500 500" style="enable-background:new 0 0 500 500;" xml:space="preserve">
<style type="text/css">
	.st0{fill:#FFFFFF;}
	.st1{fill:none;}
	.st2{fill:#010101;}
	.st3{fill:#4C4C4C;}
	.st4{fill:#FF0050;}
	.st5{fill:#00F2EA;}
	.st6{fill:none;stroke:#000000;stroke-width:0.25;stroke-miterlimit:10;}
	.st7{fill:#9E0000;}
</style>
<path class="st0" d="M533.5,439.1c0.1,0.1,0.3,0.3,0.4,0.4C533.8,439.3,533.7,439.2,533.5,439.1z"/>
<line class="st1" x1="949.6" y1="-130.6" x2="949.6" y2="-130.6"/>
<path class="st2" d="M948.5-124.5"/>
<path class="st2" d="M873-170.6"/>
<path class="st3" d="M953.3-91.6"/>
<g>
	<path class="st0" d="M313.8,286.3c-0.2,0.3-0.5,0.7-0.9,0.9c-5.5-8.2-10.8-16.8-20.1-21.8c3.8-0.5,7.7-1,11.2,1.2
		c2.7,1.9,5.5,3.6,8.9,1.5c0.5-0.3,1.2-0.2,1.4,0.5C316.4,274.6,316.6,280.4,313.8,286.3z"/>
	<path class="st0" d="M360.4,224.4c-0.3-1.9-0.9-3.6-1.4-5.5c-2.1-7.2-4.8-14.1-8.1-20.6c-1.2-2.4-2.6-4.8-4-7.2
		c-0.5-0.9-1-1.7-1.7-2.6c-1.7-2.6-3.4-5.2-5.3-7.6c-1.9-2.4-3.8-4.8-5.8-7c-0.7-0.7-1.4-1.5-2.1-2.2c-0.7-0.7-1.2-1.4-1.9-1.9
		c-20.5-20.5-48.8-33.2-80.1-33.2c-15.6,0-30.6,3.3-44.2,8.9c-1.2,0.5-2.6,1-3.8,1.7c-1.2,0.5-2.4,1.2-3.8,1.7
		c-2.4,1.2-4.8,2.6-7.2,4c-1.5,1-3.1,1.9-4.6,2.9l0,0c-5.7,3.8-11,8.1-15.8,12.9c-8.1,7.9-15,17-20.5,27c-1,2.1-2.1,4.1-3.1,6
		c-0.5,1-0.9,2.1-1.4,3.1c-2.2,5.3-4.1,10.7-5.7,16.3l0,0c-2.2,9.1-3.6,18.6-3.6,28.4c0,5.8,0.5,11.7,1.4,17.2
		c0.7,4.6,1.7,9.3,2.9,13.7c0.7,2.6,1.5,5.2,2.4,7.7c0,0.2,0.2,0.3,0.2,0.5c0.3,0.7,0.5,1.5,0.9,2.2c0.3,0.9,0.7,1.7,1,2.6
		c0.3,0.7,0.5,1.4,0.9,2.1c0.9,1.9,1.7,4,2.7,5.8c0.3,0.7,0.7,1.4,1,2.1c0.3,0.9,0.9,1.5,1.4,2.4c0.5,0.9,0.9,1.5,1.4,2.4
		c0.9,1.5,1.9,3.1,2.9,4.6c1.5,2.2,3.1,4.5,4.8,6.5c2.7,3.6,5.8,6.9,8.9,10.1c0.7,0.7,1.2,1.2,1.9,1.9l0,0c0.7,0.7,1.4,1.2,2.1,1.9
		c1.4,1.2,2.7,2.4,4.1,3.6c0.3,0.3,0.7,0.5,1,0.9c0.3,0.3,0.7,0.5,1,0.9l0,0c0.3,0.3,0.7,0.5,1,0.9c0.3,0.3,0.7,0.5,1,0.9
		c0.5,0.3,1.2,0.9,1.7,1.2c0.2,0.2,0.3,0.2,0.5,0.3c0.3,0.3,0.9,0.5,1.2,0.9c0.3,0.2,0.7,0.5,1,0.7l0,0c0.2,0.2,0.3,0.2,0.5,0.3
		c1.2,0.9,2.4,1.5,3.6,2.2c0.2,0.2,0.3,0.2,0.5,0.3l0,0c0.9,0.5,1.5,0.9,2.4,1.4c0.9,0.5,1.5,0.9,2.4,1.4l0,0
		c0.3,0.2,0.9,0.3,1.2,0.7c0.3,0.2,0.9,0.3,1.2,0.7l0,0c0.7,0.3,1.2,0.7,1.9,0.9c1.2,0.5,2.4,1.2,3.8,1.7c0.7,0.3,1.2,0.5,1.9,0.9
		l0,0c0.9,0.3,1.7,0.7,2.6,1l0,0c0.9,0.3,1.7,0.7,2.6,1l0,0c0.9,0.3,1.7,0.7,2.6,0.9c1.7,0.5,3.6,1.2,5.3,1.7c1.7,0.5,3.6,1,5.5,1.4
		l0,0c0.5,0.2,1.2,0.3,1.7,0.3c0.2,0,0.2,0,0.3,0c0.2,0,0.5,0.2,0.7,0.2c0.5,0,0.9,0.2,1.4,0.2c1.2,0.2,2.4,0.5,3.6,0.7
		c0.7,0.2,1.4,0.2,2.2,0.3c1.2,0.2,2.6,0.3,3.8,0.5c0.5,0,1.2,0.2,1.9,0.2c1.4,0.2,2.7,0.2,4,0.3c1.2,0,2.2,0.2,3.4,0.2
		c0.9,0,1.7,0,2.6,0c10.3,0,20.3-1.4,29.7-4c1.2-0.3,2.4-0.7,3.4-1c3.4-1,6.9-2.2,10.3-3.6c4.5-1.9,8.8-4,12.9-6.4
		c1.5-0.9,3.1-1.9,4.6-2.9l0,0c1.2-0.7,2.2-1.5,3.4-2.2l0,0c1-0.9,2.2-1.5,3.3-2.4l0,0c1.4-1,2.9-2.2,4.3-3.4
		c1.4-1.2,2.7-2.4,4.1-3.6c1.4-1.2,2.6-2.4,4-3.8c0.7-0.7,1.2-1.4,1.9-1.9c0.7-0.7,1.4-1.5,2.1-2.2c2.1-2.2,4-4.6,5.8-7
		c1.9-2.4,3.6-5,5.3-7.6c0.5-0.9,1-1.7,1.7-2.6c1.4-2.4,2.7-4.8,4-7.2c3.3-6.5,6-13.4,8.1-20.6c0.5-1.7,1-3.6,1.4-5.5
		c1.9-8.2,2.9-16.8,2.9-25.6S362.3,232.6,360.4,224.4z M343.2,236.9c-1.2,2.4-2.4,4.8-4,7.2c-0.2-1.9,0-3.8-0.3-5.5
		c-0.5-2.4-1-4.8-2.2-6.7c-1-1.5-3.3-2.4-5.2-3.4c-0.3-0.2-1.4,0.2-1.9,0.7c-5.5,4-8.8,9.3-10.5,15.8c-1.9,7.4-0.2,14.3,1.7,21.5
		c1.4,5.2,2.4,10.7,3.3,16c0.3,2.1,0.7,5.7,0.5,7.7c-0.3,9.3-2.1,18-6.5,26.8c-0.5-2.4-0.9-4.5-1.4-6.4c-1.2-4-2.9-7.6-6.2-10.1
		c-2.1-1.7-4.1-2.7-6.9-1.4c-4.3,1.9-8.9,2.9-16.5,14.6c-7.7,12.4-11.7,25.8-15.1,39.9c-1.2-0.5-2.4-1.2-3.6-1.7
		c-9.5-4.3-18.6-9.1-27.5-14.4c-12.2-7.4-24.1-15.1-35.1-24.2c-0.3-0.2-0.5-0.3-0.9-0.7c-6.9-5.8-13.7-11.9-19.8-18.4
		c-6.9-7.6-12.9-15.8-19.2-23.7c0.2-0.2,0.3-0.5,0.5-0.7c2.6-0.3,5.2-0.7,7.7-0.9c6.4-0.3,12.7-0.7,19.1-0.9
		c5.7-0.3,11.2-0.7,16.8-0.9c12.4-0.2,24.9-0.7,37.3-0.3c8.1,0.2,16.2,0.5,23.9,3.4c7.6,2.9,14.6,6.7,21.3,11.3
		c3.4,2.4,6.7,5.2,10,7.7c0.2,0,0.3,0,0.5,0c-0.2-0.2-0.2-0.3-0.3-0.3c-2.6-4.3-4.8-8.9-8.1-12.7c-4-4.5-8.8-8.2-13.4-12
		c-1.2-1-2.7-2.2-4.3-2.7c-4.5-1.4-5.8-5-7-8.8c-1.4-4.3-1.7-8.6-0.7-12.9c1.7-7.9,8.4-12.2,16-15c3.3-1.2,6.7-1.9,10.3-2.2
		c7.2-0.7,14.6-0.9,21.8-1.2c0.3,0,0.7,0,0.9-0.2c-0.3-0.2-0.5-0.5-0.9-0.7c-5.5-1.9-10.8-4.1-16.7-5c-2.1-0.3-4.3-0.3-6.4,0
		c-10.3,1.4-18.7,5.8-25.6,12.7c-3.1,3.1-5.8,6.7-8.8,9.8c-0.9,0.9-2.4,1.5-3.4,1.4c-10.8-1.9-21.8-3.4-32.3-7
		c-4.6-1.7-9.3-3.4-13.1-6.9c7.6,1.2,15,3.6,23.4,2.9c-6.4-2.2-12.4-3.6-18-7.6c9.1,1.7,17.4,3.8,26.6,4.1c-5-2.1-9.3-3.8-13.6-5.5
		c0-0.3,0.2-0.5,0.2-0.9h7.4c6.4,0,12.7,0.2,19.1,0c5.3-0.3,10.5-1.2,15.6-1.7c5.8-0.5,11.3-2.6,16.5-5.2c5.5-2.9,10-6.9,14.3-11.5
		c0.5-0.5,1.5-1.2,2.4-1c5.5,0.5,10.8,1,16.3,1.7c-4.3-3.1-9.3-4.5-15-5c2.2-2.7,5-4.3,8.1-4.8c7.7-1.5,14.8,0.2,21.3,4.8
		s10.3,11,11.3,18.7C348,221.8,346.7,229.5,343.2,236.9z"/>
	<path d="M415.6,244.3c0-1,0-2.1-0.2-3.1c0-1.2-0.2-2.6-0.2-3.8c0-0.7-0.2-1.4-0.2-1.9c0-0.9-0.2-1.7-0.2-2.7c0-0.2,0-0.3,0-0.5
		c-0.2-1.2-0.2-2.4-0.3-3.4c-0.2-1.2-0.3-2.2-0.3-3.4c-0.2-1-0.3-2.1-0.3-2.9c-0.2-0.9-0.3-1.9-0.3-2.7c-0.2-1.2-0.3-2.2-0.7-3.4
		c0-0.2,0-0.3,0-0.3c0-0.2,0-0.2,0-0.3c-0.2-1-0.3-1.9-0.5-2.7c-0.2-0.7-0.3-1.4-0.5-2.1c-0.2-1-0.3-1.9-0.7-2.9
		c-0.2-1-0.5-1.9-0.7-2.7c-0.2-0.7-0.3-1.5-0.5-2.2c-0.3-1-0.5-2.1-0.9-3.1v-0.2c-0.7-2.6-1.5-5.2-2.4-7.7c-0.3-1.4-0.9-2.6-1.4-3.8
		c-0.5-1.4-0.9-2.6-1.4-3.8c-1-2.6-2.1-5-3.1-7.6c-0.5-1.2-1-2.4-1.7-3.8c-1.2-2.4-2.4-4.8-3.6-7.2c-1.2-2.4-2.6-4.8-4-7
		c-1.4-2.4-2.7-4.6-4.3-6.9c-0.7-1-1.4-2.2-2.2-3.3c-0.7-1-1.5-2.2-2.2-3.3c-0.7-1-1.5-2.1-2.2-3.1l-0.2-0.2c-0.9-1-1.5-2.1-2.4-3.1
		c-0.9-1.2-1.7-2.2-2.7-3.4c-0.7-0.9-1.5-1.9-2.4-2.7c-0.5-0.7-1.2-1.4-1.7-1.9c-0.7-0.9-1.5-1.7-2.2-2.4c-0.7-0.9-1.5-1.5-2.2-2.4
		c0-0.2-0.2-0.2-0.2-0.2c-0.9-0.9-1.7-1.9-2.7-2.7c-0.2-0.2-0.3-0.3-0.5-0.5c-0.7-0.9-1.5-1.5-2.2-2.2c-0.3-0.3-0.5-0.5-0.9-0.9
		c-0.7-0.7-1.5-1.4-2.2-2.1c-0.3-0.3-0.7-0.7-1-0.9c-0.7-0.5-1.4-1.2-2.1-1.7c-0.3-0.3-0.7-0.7-1-1c-0.7-0.7-1.5-1.2-2.2-1.9
		c-2.4-2.1-5-4-7.6-5.8c-1-0.9-2.1-1.5-3.3-2.2c-1.2-0.7-2.2-1.5-3.3-2.2c-1-0.7-2.2-1.4-3.3-2.1c-1-0.7-2.2-1.4-3.4-2.1
		c-1.2-0.7-2.2-1.4-3.4-1.9c0,0,0,0-0.2,0c-1-0.5-2.2-1.2-3.3-1.7c-0.2,0-0.2-0.2-0.3-0.2c-1-0.5-2.1-1-3.1-1.5
		c-0.3-0.2-0.5-0.3-0.9-0.3c-1-0.5-1.9-0.9-2.9-1.4l-0.2-0.2c-1-0.5-2.1-0.9-3.1-1.4c-0.5-0.2-0.9-0.3-1.4-0.5
		c-0.9-0.3-1.7-0.7-2.6-1c-4.3-1.7-8.6-3.3-12.9-4.6c-0.9-0.3-1.9-0.5-2.7-0.9c-0.2,0-0.3-0.2-0.5-0.2c-1-0.3-2.2-0.7-3.3-0.9
		c-1.2-0.3-2.4-0.5-3.6-0.9c-1-0.2-2.1-0.5-3.1-0.7c-0.2,0-0.5-0.2-0.7-0.2c-0.9-0.2-1.7-0.3-2.6-0.5c-1-0.2-2.2-0.3-3.3-0.5
		c0,0,0,0-0.2,0c-1.4-0.3-2.9-0.5-4.3-0.7c-1.5-0.2-2.9-0.3-4.5-0.5c-1.4-0.2-2.9-0.3-4.5-0.3c-1.5,0-2.9-0.2-4.5-0.3c0,0,0,0-0.2,0
		c-1.4,0-2.6-0.2-4-0.2l0,0c-1.5,0-2.9,0-4.5,0c-2.9,0-5.7,0-8.6,0.2h-0.2c-0.2,0-0.2,0-0.3,0s-0.2,0-0.3,0c-0.3,0-0.7,0-0.9,0
		c-3.4,0.2-7,0.5-10.5,1c-1.2,0.2-2.6,0.3-3.8,0.5c-1,0.2-2.1,0.3-3.1,0.5c-0.3,0-0.7,0.2-1,0.2c-0.7,0.2-1.4,0.2-1.9,0.3
		c-0.9,0.2-1.5,0.3-2.4,0.5c-0.3,0-0.7,0.2-1,0.2c-0.9,0.2-1.7,0.3-2.7,0.5c-0.5,0.2-0.9,0.2-1.4,0.3c-0.9,0.2-1.7,0.3-2.6,0.7
		c-0.3,0.2-0.7,0.2-1,0.3c-0.7,0.2-1.5,0.3-2.2,0.7c-0.9,0.2-1.5,0.5-2.4,0.7c-0.3,0-0.5,0.2-0.9,0.2c-0.9,0.2-1.5,0.5-2.4,0.7
		c-0.5,0.2-1.2,0.3-1.7,0.5c-0.7,0.2-1.2,0.3-1.9,0.7c-1,0.3-2.2,0.9-3.3,1.2c-0.9,0.3-1.7,0.7-2.6,1c-9.1,3.6-17.7,7.9-26,13.1
		c-0.9,0.5-1.9,1.2-2.7,1.7c-0.2,0-0.3,0.2-0.5,0.3c-0.9,0.5-1.5,1-2.4,1.5c-0.3,0.3-0.9,0.5-1.2,0.9c-0.9,0.5-1.5,1-2.2,1.7
		c-0.2,0.2-0.3,0.3-0.7,0.5c-0.9,0.5-1.5,1.2-2.4,1.7c-0.3,0.2-0.5,0.3-0.9,0.7c-0.7,0.5-1.4,1-2.1,1.5c-1.4,1-2.6,2.1-3.8,3.1
		c-1,0.9-1.9,1.7-2.9,2.6c-0.9,0.9-1.9,1.7-2.7,2.6c-2.1,1.7-4,3.6-5.8,5.5c-1,1.2-2.2,2.2-3.3,3.4c-0.2,0.2-0.3,0.3-0.5,0.5
		c-0.7,0.7-1.4,1.4-1.9,2.1c-0.2,0.2-0.2,0.3-0.3,0.3c-0.3,0.3-0.7,0.9-1,1.2c-0.2,0.2-0.3,0.3-0.5,0.5c-0.5,0.5-0.9,1-1.4,1.5
		c-0.3,0.5-0.9,1-1.2,1.5l-0.2,0.2c-1.7,2.1-3.3,4.1-5,6.2c0,0,0,0,0,0.2c-0.2,0.2-0.3,0.5-0.5,0.7c-0.5,0.9-1.2,1.5-1.7,2.4
		c-0.3,0.3-0.5,0.7-0.9,1c0,0.2-0.2,0.2-0.2,0.3c-0.3,0.7-0.9,1.2-1.2,1.9c0,0,0,0.2-0.2,0.2c-0.7,1-1.4,2.1-2.1,3.3
		s-1.4,2.2-2.1,3.4c-1.4,2.1-2.6,4.3-3.8,6.4c-0.2,0.2-0.2,0.3-0.3,0.5c-0.7,1.2-1.4,2.4-1.9,3.6c-0.7,1.2-1.2,2.4-1.9,3.6
		c-1.2,2.4-2.4,4.8-3.4,7.4c-1,2.4-2.1,5-3.1,7.6c-1,2.6-1.9,5.2-2.7,7.7c-0.3,1.4-0.9,2.6-1.2,4c-0.3,1.4-0.9,2.6-1.2,4
		c-0.2,0.9-0.5,1.7-0.7,2.6c-0.2,0.5-0.2,0.9-0.3,1.4v0.2c-0.3,1.2-0.7,2.4-0.9,3.6c0,0.2,0,0.3-0.2,0.5c-0.3,1.4-0.7,2.7-0.9,4.1
		c-0.5,2.6-1,5.3-1.5,7.9c-0.2,0.9-0.3,1.9-0.3,2.7v0.2c0,0.3-0.2,0.9-0.2,1.2c0,0.5-0.2,1.2-0.2,1.7c-0.2,0.9-0.2,1.7-0.3,2.4
		c0,0.2,0,0.3,0,0.5c-0.2,1-0.2,2.2-0.3,3.3c0,0.2,0,0.3,0,0.5c-0.2,1.2-0.2,2.2-0.3,3.4c0,0.3,0,0.5,0,0.9c0,0.9-0.2,1.5-0.2,2.4
		c0,0.2,0,0.2,0,0.3c0,0.5,0,1,0,1.5c0,0.3,0,0.5,0,0.9c0,0.2,0,0.3,0,0.3c-0.2,2.4-0.2,5-0.2,7.4c0,1,0,2.2,0,3.3v0.3
		c0,0.3,0,0.5,0,0.9c0,0.7,0,1.4,0,2.1c0,0.3,0,0.9,0,1.2c0,0.5,0,1,0,1.5c0,0.9,0,1.5,0.2,2.4c0,0.5,0,1.2,0.2,1.7
		c0,0.7,0.2,1.4,0.2,2.1s0.2,1.4,0.2,2.1c0,0.9,0.2,1.7,0.2,2.4v0.2c0,0.7,0.2,1.2,0.2,1.9c0,0.7,0.2,1.2,0.2,1.9c0,0.2,0,0.5,0,0.7
		c0,0.3,0.2,0.7,0.2,1.2c0.2,1,0.3,1.9,0.3,2.9c0,0.3,0.2,0.7,0.2,1c0,0.2,0,0.2,0,0.3c0,0.5,0.2,0.9,0.2,1.4
		c0.2,0.9,0.3,1.7,0.5,2.7c0.2,1.4,0.5,2.7,0.9,4.1c0.3,1.4,0.5,2.7,0.9,4.1l0,0c0.3,1.4,0.7,2.6,1,4l0,0l0,0
		c0.7,2.7,1.4,5.3,2.2,7.9c0.2,0.7,0.3,1.4,0.7,1.9s0.3,1.4,0.7,1.9l0,0c0.9,2.6,1.7,5.2,2.7,7.7l0,0c0.5,1.2,1,2.6,1.5,3.8l0,0
		c0.2,0.5,0.3,1,0.7,1.5c0.3,0.9,0.7,1.5,1,2.2c0.2,0.2,0.2,0.5,0.3,0.7c0.2,0.5,0.5,1,0.7,1.5c0.2,0.5,0.3,0.9,0.7,1.4l0,0
		c0.5,1.2,1.2,2.4,1.7,3.6l0,0c0.5,1.2,1.2,2.4,1.7,3.6l0,0c0.7,1.2,1.2,2.4,1.9,3.4l0,0c0.7,1.2,1.4,2.4,2.1,3.4l0,0
		c0.7,1.2,1.4,2.2,2.1,3.4l0,0c0.7,1.2,1.4,2.2,2.1,3.4l0,0c0.7,1.2,1.4,2.2,2.2,3.3l0,0c1.5,2.2,3.1,4.3,4.6,6.5l0,0
		c0.3,0.5,0.9,1,1.2,1.5c0.3,0.5,0.9,1,1.2,1.5c0.9,1,1.7,2.1,2.4,3.1l0,0c0.9,1,1.7,2.1,2.6,3.1c0.9,1,1.7,2.1,2.6,2.9l0,0
		c1.7,1.9,3.6,3.8,5.5,5.7c1,1.2,2.2,2.2,3.4,3.3c0.2,0.2,0.2,0.3,0.3,0.3c0.9,0.9,1.7,1.5,2.6,2.4c0.5,0.5,1,1,1.7,1.5
		c2.1,1.9,4.3,3.8,6.5,5.5c1,0.9,2.1,1.5,3.1,2.4l0,0l0,0c1,0.9,2.1,1.5,3.1,2.2c2.1,1.5,4.3,3.1,6.5,4.5c1,0.7,2.2,1.4,3.3,2.1l0,0
		l0,0c0.3,0.3,0.9,0.5,1.4,0.9l0,0c1,0.7,2.2,1.4,3.3,1.9c1.4,0.9,2.7,1.5,4.1,2.2c0,0,0.2,0.2,0.3,0.2c0.7,0.3,1.4,0.7,1.9,1
		c0.9,0.3,1.5,0.9,2.4,1.2c0.2,0.2,0.3,0.2,0.5,0.2c2.1,1,4.1,1.9,6.2,2.9c0.3,0.2,0.5,0.2,0.9,0.3l0,0l0,0c0.5,0.3,1.2,0.5,1.7,0.9
		c0.3,0.2,0.7,0.3,1,0.3c0.3,0.2,0.5,0.2,0.9,0.3l0,0l0,0c1.2,0.5,2.4,1,3.6,1.4l0,0l0,0c0.5,0.2,1,0.3,1.5,0.5c0,0,0.2,0,0.3,0.2
		c0.7,0.2,1.2,0.5,1.9,0.7c0.3,0.2,0.7,0.2,1,0.3c0.9,0.3,1.9,0.7,2.7,0.9l0,0c2.6,0.9,5,1.5,7.6,2.2s5.2,1.4,7.7,1.9
		c1.5,0.3,3.1,0.7,4.5,0.9c1.4,0.2,2.6,0.5,3.8,0.7c2.4,0.3,5,0.7,7.4,1c2.7,0.3,5.3,0.5,8.1,0.7l0,0c1.4,0,2.7,0.2,4.1,0.2
		c1,0,1.9,0,2.7,0l0,0c0.9,0,1.9,0,2.7,0h1.2c0.5,0,0.9,0,1.4,0c0.2,0,0.2,0,0.3,0c0.7,0,1.4,0,2.2,0c1,0,2.2,0,3.3-0.2l0,0
		c0.2,0,0.2,0,0.3,0c0.9,0,1.7-0.2,2.6-0.2c1.9-0.2,3.6-0.3,5.5-0.5c0.5,0,1-0.2,1.7-0.2c1-0.2,2.1-0.2,3.1-0.3c0.2,0,0.3,0,0.7,0
		c1-0.2,2.1-0.3,3.3-0.5c0.7-0.2,1.4-0.2,2.1-0.3c0.5,0,1.2-0.2,1.7-0.3c0.7-0.2,1.4-0.3,2.2-0.3c0.9-0.2,1.7-0.3,2.4-0.5
		c0.5-0.2,1.2-0.2,1.7-0.3c0.7-0.2,1.4-0.3,2.2-0.5c0.7-0.2,1.2-0.3,1.7-0.5c0.9-0.2,1.7-0.5,2.6-0.7c3.1-0.9,6.4-1.9,9.5-2.9
		c1.4-0.5,2.7-1,4.1-1.5c1.4-0.5,2.6-1,4-1.5c1.7-0.7,3.3-1.4,5-2.1c1-0.3,2.1-0.9,2.9-1.4h0.2c1-0.5,2.1-0.9,2.9-1.4
		c0.5-0.3,1.2-0.5,1.7-0.9c0.9-0.3,1.5-0.9,2.4-1.2c1-0.5,2.1-1,3.1-1.7c0.7-0.3,1.4-0.9,2.1-1.2c0.5-0.3,1-0.5,1.5-0.9
		c0.7-0.3,1.4-0.9,1.9-1.2c0.5-0.3,1-0.7,1.5-1c0.7-0.5,1.4-0.9,2.2-1.4c0,0,0.2,0,0.2-0.2c1-0.7,2.1-1.4,3.1-2.1
		c5.5-3.8,10.7-7.7,15.6-12.2c0.9-0.7,1.7-1.4,2.4-2.2c0.2-0.2,0.3-0.3,0.7-0.5c0.9-0.7,1.5-1.4,2.2-2.1c0.2-0.2,0.5-0.3,0.7-0.7
		c0.7-0.7,1.4-1.4,2.1-1.9c0.3-0.3,0.9-0.9,1.2-1.2c0.5-0.5,1.2-1.2,1.7-1.9c0.2-0.2,0.3-0.5,0.7-0.7c0.9-0.9,1.5-1.5,2.2-2.4
		c0-0.2,0.2-0.2,0.2-0.3c0.9-0.9,1.7-1.9,2.4-2.7c1.7-2.1,3.4-4.1,5-6.2c0.9-1,1.5-2.1,2.4-3.1l0.2-0.2c1.5-2.1,3.1-4.1,4.5-6.4
		c0.7-1,1.5-2.2,2.2-3.3c1.4-2.2,2.9-4.5,4.3-6.9c1.4-2.2,2.6-4.6,4-7c1.2-2.4,2.4-4.8,3.6-7.2c0.5-1.2,1.2-2.4,1.7-3.8
		c1-2.4,2.1-5,3.1-7.6c0.5-1.2,1-2.6,1.4-3.8c0.5-1.2,0.9-2.6,1.4-3.8c0.9-2.6,1.7-5.2,2.4-7.7c0,0,0,0,0-0.2c0.3-1,0.5-2.1,0.9-3.1
		c0.2-0.7,0.3-1.5,0.5-2.2c0.2-0.9,0.5-1.9,0.7-2.7c0.2-1,0.5-1.9,0.7-2.9c0.2-0.7,0.3-1.4,0.5-2.1c0.2-0.9,0.3-1.9,0.5-2.7
		c0-0.2,0-0.2,0-0.3s0-0.3,0-0.3c0.2-1.2,0.3-2.2,0.7-3.4c0.2-0.9,0.3-1.9,0.3-2.7c0.2-1,0.3-1.9,0.3-2.9c0.2-1,0.3-2.2,0.3-3.4
		c0.2-1.2,0.2-2.2,0.3-3.4c0-0.2,0-0.3,0-0.5c0-0.9,0.2-1.7,0.2-2.7c0-0.7,0.2-1.2,0.2-1.9c0-1.2,0.2-2.6,0.2-3.8c0-1,0-2.1,0.2-3.1
		c0-1.9,0.2-3.8,0.2-5.7C415.8,248.1,415.8,246.2,415.6,244.3z M360.4,275.6c-0.3,1.9-0.9,3.6-1.4,5.5c-2.1,7.2-4.8,14.1-8.1,20.6
		c-1.2,2.4-2.6,4.8-4,7.2c-0.5,0.9-1,1.7-1.7,2.6c-1.7,2.6-3.4,5.2-5.3,7.6c-1.9,2.4-3.8,4.8-5.8,7c-0.7,0.7-1.4,1.5-2.1,2.2
		c-0.7,0.7-1.2,1.4-1.9,1.9c-1.2,1.4-2.6,2.6-4,3.8s-2.7,2.4-4.1,3.6c-1.4,1.2-2.7,2.2-4.3,3.4l0,0c-1,0.9-2.2,1.5-3.3,2.4l0,0
		c-1.2,0.7-2.2,1.5-3.4,2.2l0,0c-1.5,1-3.1,1.9-4.6,2.9c-4.1,2.4-8.4,4.5-12.9,6.4c-3.3,1.4-6.7,2.6-10.3,3.6
		c-1.2,0.3-2.4,0.7-3.4,1c-9.5,2.6-19.4,4-29.7,4c-0.9,0-1.7,0-2.6,0c-1.2,0-2.2,0-3.4-0.2c-1.9-0.2-3.6-0.2-5.5-0.3
		c-0.2,0-0.3,0-0.5,0s-0.5,0-0.7,0c-1.7-0.2-3.6-0.3-5.3-0.7c-1.2-0.2-2.4-0.3-3.6-0.7c-0.7-0.2-1.4-0.3-2.1-0.3c-0.2,0-0.2,0-0.3,0
		c-0.5-0.2-1.2-0.2-1.7-0.3l0,0l0,0c-1.9-0.3-3.6-0.9-5.5-1.4c-1.7-0.5-3.6-1-5.3-1.7c-0.9-0.3-1.7-0.7-2.6-0.9l0,0l0,0
		c-0.9-0.3-1.7-0.7-2.6-1l0,0l0,0c-0.9-0.3-1.7-0.7-2.6-1l0,0l0,0c-0.7-0.3-1.2-0.5-1.9-0.9c-1.2-0.5-2.4-1.2-3.8-1.7
		c-0.7-0.3-1.2-0.5-1.9-0.9l0,0l0,0c-0.3-0.2-0.9-0.3-1.2-0.7c-0.3-0.2-0.9-0.3-1.2-0.7l0,0l0,0c-0.9-0.3-1.5-0.9-2.4-1.4
		c-0.9-0.5-1.5-0.9-2.4-1.4l0,0l0,0c-0.2-0.2-0.3-0.2-0.5-0.3c-1.2-0.7-2.4-1.5-3.6-2.2c-0.2-0.2-0.3-0.2-0.5-0.3l0,0l0,0
		c-0.3-0.2-0.7-0.5-1-0.7c-0.3-0.3-0.9-0.5-1.2-0.9c-0.2-0.2-0.3-0.2-0.5-0.3c-0.5-0.3-1-0.9-1.7-1.2c-0.3-0.3-0.7-0.5-1-0.9
		c-0.3-0.2-0.7-0.5-1-0.9l0,0c-0.3-0.3-0.7-0.5-1-0.9c-2.4-1.9-4.8-4.1-7-6.2l0,0c-4-3.8-7.6-7.7-11-12c-1.7-2.1-3.3-4.3-4.8-6.5
		c-1-1.5-2.1-3.1-2.9-4.6c-0.5-0.9-1-1.5-1.4-2.4c-0.5-0.9-0.9-1.5-1.4-2.4c-0.3-0.7-0.7-1.4-1-2.1c-1-1.9-1.9-3.8-2.7-5.8
		c-0.3-0.7-0.7-1.4-0.9-2.1c-0.3-0.9-0.7-1.7-1-2.6c-0.3-0.7-0.5-1.5-0.9-2.2c0-0.2-0.2-0.3-0.2-0.5c-0.9-2.6-1.7-5.2-2.4-7.7
		c-1.4-4.5-2.2-9.1-2.9-13.7c-0.9-5.7-1.4-11.3-1.4-17.2c0-9.8,1.2-19.2,3.6-28.4l0,0c1.4-5.7,3.3-11.2,5.7-16.3
		c0.5-1,0.9-2.1,1.4-3.1c1-2.1,2.1-4.1,3.1-6c5.5-10,12.4-19.1,20.5-27c4.8-4.8,10.1-9.1,15.8-12.9l0,0c1.5-1,3.1-2.1,4.6-2.9
		c2.4-1.4,4.8-2.7,7.2-4c1.2-0.7,2.4-1.2,3.8-1.7c1.2-0.5,2.6-1.2,3.8-1.7c13.6-5.7,28.5-8.9,44.2-8.9c31.3,0,59.6,12.7,80.1,33.2
		c0.7,0.7,1.4,1.2,1.9,1.9c0.7,0.7,1.4,1.5,2.1,2.2c2.1,2.2,4,4.6,5.8,7c1.9,2.4,3.6,5,5.3,7.6c0.5,0.9,1,1.7,1.7,2.6
		c1.4,2.4,2.7,4.8,4,7.2c3.3,6.5,6,13.4,8.1,20.6c0.5,1.7,1,3.6,1.4,5.5c1.9,8.2,2.9,16.8,2.9,25.6
		C363.7,260,362.3,267.4,360.4,275.6z"/>
	<path class="st4" d="M424.3,250c0,19.8-3.3,38.7-9.3,56.4c-0.5,1.5-1,2.9-1.5,4.5c-1,2.9-2.2,5.8-3.4,8.6
		c-5,11.3-11,22.2-18.2,32.1c-1.7,2.4-3.6,5-5.5,7.2c-6.7,8.4-14.1,16.2-22.2,23l0,0c-0.9,0.7-1.5,1.4-2.4,2.1
		c-1.5,1.4-3.3,2.6-4.8,4c-0.9,0.7-1.7,1.4-2.6,1.9c-1,0.9-2.2,1.7-3.4,2.4c-2.2,1.5-4.6,3.3-6.9,4.6c-1.2,0.7-2.4,1.5-3.6,2.2
		c-2.4,1.4-4.8,2.9-7.2,4.1c-22.3,12.2-47.8,19.4-74.8,20.6c87.6-4.7,154.5-81,156.9-173.9c0.6-22.7-3.6-44-10.9-63.8
		c-2.1-5.6-4.3-10.6-6.9-15.8c-2.6-5.3-5.6-10.8-8.8-15.8c-3.7-5.9-7.5-11.3-11.9-16.6c-3-3.7-5.9-7-9.2-10.4
		c-4-4.2-8.7-8.8-13.1-12.5c-26.7-22.5-59.7-36.7-96.1-38.7C350.8,80.9,424.3,156.3,424.3,250z"/>
	<path class="st5" d="M240.3,423.7c-26.5-1.4-51.4-8.4-73.6-20.4c-2.4-1.4-5-2.7-7.2-4.1c-1.2-0.7-2.4-1.5-3.6-2.2
		c-2.4-1.5-4.6-3.1-6.9-4.6c-1.2-0.9-2.2-1.7-3.4-2.4c-0.9-0.7-1.7-1.2-2.4-1.9c-1.7-1.4-3.3-2.6-5-4c-0.9-0.7-1.5-1.4-2.4-2.1l0,0
		c-8.1-7-15.5-14.8-22.2-23c-1.9-2.4-3.8-4.8-5.5-7.2c-7-10-13.2-20.6-18.2-32c-1.2-2.7-2.4-5.7-3.4-8.6c-0.5-1.5-1-2.9-1.5-4.5
		c-6-17.7-9.3-36.8-9.3-56.4C75.7,157,149,80.9,241.1,76.3C153.5,80.7,84.1,156.7,84.1,250C84.1,343,153.2,418.6,240.3,423.7z"/>
	<path class="st6" d="M313.8,286.3c-0.2,0.3-0.5,0.7-0.9,0.9c-5.5-8.2-10.8-16.8-20.1-21.8c3.8-0.5,7.7-1,11.2,1.2
		c2.7,1.9,5.5,3.6,8.9,1.5c0.5-0.3,1.2-0.2,1.4,0.5C316.4,274.6,316.6,280.4,313.8,286.3z"/>
	<path class="st6" d="M313.8,286.3c-0.2,0.3-0.5,0.7-0.9,0.9c-5.5-8.2-10.8-16.8-20.1-21.8c3.8-0.5,7.7-1,11.2,1.2
		c2.7,1.9,5.5,3.6,8.9,1.5c0.5-0.3,1.2-0.2,1.4,0.5C316.4,274.6,316.6,280.4,313.8,286.3z"/>
	<path class="st6" d="M343.2,236.9c-1.2,2.4-2.4,4.8-4,7.2c-0.2-1.9,0-3.8-0.3-5.5c-0.5-2.4-1-4.8-2.2-6.7c-1-1.5-3.3-2.4-5.2-3.4
		c-0.3-0.2-1.4,0.2-1.9,0.7c-5.5,4-8.8,9.3-10.5,15.8c-1.9,7.4-0.2,14.3,1.7,21.5c1.4,5.2,2.4,10.7,3.3,16c0.3,2.1,0.7,5.7,0.5,7.7
		c-0.3,9.3-2.1,18-6.5,26.8c-0.5-2.4-0.9-4.5-1.4-6.4c-1.2-4-2.9-7.6-6.2-10.1c-2.1-1.7-4.1-2.7-6.9-1.4c-4.3,1.9-8.9,2.9-16.5,14.6
		c-7.7,12.4-11.7,25.8-15.1,39.9c-1.2-0.5-2.4-1.2-3.6-1.7c-9.5-4.3-18.6-9.1-27.5-14.4c-12.2-7.4-24.1-15.1-35.1-24.2
		c-0.3-0.2-0.5-0.3-0.9-0.7c-6.9-5.8-13.7-11.9-19.8-18.4c-6.9-7.6-12.9-15.8-19.2-23.7c0.2-0.2,0.3-0.5,0.5-0.7
		c2.6-0.3,5.2-0.7,7.7-0.9c6.4-0.3,12.7-0.7,19.1-0.9c5.7-0.3,11.2-0.7,16.8-0.9c12.4-0.2,24.9-0.7,37.3-0.3
		c8.1,0.2,16.2,0.5,23.9,3.4c7.6,2.9,14.6,6.7,21.3,11.3c3.4,2.4,6.7,5.2,10,7.7c0.2,0,0.3,0,0.5,0c-0.2-0.2-0.2-0.3-0.3-0.3
		c-2.6-4.3-4.8-8.9-8.1-12.7c-4-4.5-8.8-8.2-13.4-12c-1.2-1-2.7-2.2-4.3-2.7c-4.5-1.4-5.8-5-7-8.8c-1.4-4.3-1.7-8.6-0.7-12.9
		c1.7-7.9,8.4-12.2,16-15c3.3-1.2,6.7-1.9,10.3-2.2c7.2-0.7,14.6-0.9,21.8-1.2c0.3,0,0.7,0,0.9-0.2c-0.3-0.2-0.5-0.5-0.9-0.7
		c-5.5-1.9-10.8-4.1-16.7-5c-2.1-0.3-4.3-0.3-6.4,0c-10.3,1.4-18.7,5.8-25.6,12.7c-3.1,3.1-5.8,6.7-8.8,9.8
		c-0.9,0.9-2.4,1.5-3.4,1.4c-10.8-1.9-21.8-3.4-32.3-7c-4.6-1.7-9.3-3.4-13.1-6.9c7.6,1.2,15,3.6,23.4,2.9c-6.4-2.2-12.4-3.6-18-7.6
		c9.1,1.7,17.4,3.8,26.6,4.1c-5-2.1-9.3-3.8-13.6-5.5c0-0.3,0.2-0.5,0.2-0.9h7.4c6.4,0,12.7,0.2,19.1,0c5.3-0.3,10.5-1.2,15.6-1.7
		c5.8-0.5,11.3-2.6,16.5-5.2c5.5-2.9,10-6.9,14.3-11.5c0.5-0.5,1.5-1.2,2.4-1c5.5,0.5,10.8,1,16.3,1.7c-4.3-3.1-9.3-4.5-15-5
		c2.2-2.7,5-4.3,8.1-4.8c7.7-1.5,14.8,0.2,21.3,4.8s10.3,11,11.3,18.7C348,221.8,346.7,229.5,343.2,236.9z"/>
	<path class="st7" d="M313.8,286.3c-0.2,0.3-0.5,0.7-0.9,0.9c-5.5-8.2-10.8-16.8-20.1-21.8c3.8-0.5,7.7-1,11.2,1.2
		c2.7,1.9,5.5,3.6,8.9,1.5c0.5-0.3,1.2-0.2,1.4,0.5C316.4,274.6,316.6,280.4,313.8,286.3z"/>
	<g>
		<path class="st0" d="M206.3,312.7c-0.2,0.2-0.2,0.2-0.3,0.3C205.9,313.1,206.1,312.9,206.3,312.7z"/>
		<path d="M347.1,214.8c-1-7.7-4.8-14.1-11.3-18.7c-6.5-4.6-13.6-6.4-21.3-4.8c-3.1,0.7-5.7,2.2-8.1,4.8c5.7,0.7,10.7,1.9,15,5
			c-5.5-0.5-10.8-1.2-16.3-1.7c-0.7,0-1.7,0.5-2.4,1c-4.1,4.5-8.6,8.6-14.3,11.5c-5.2,2.6-10.7,4.6-16.5,5.2
			c-5.2,0.5-10.5,1.4-15.6,1.7c-6.4,0.3-12.7,0-19.1,0h-7.4c0,0.3-0.2,0.5-0.2,0.9c4.3,1.7,8.6,3.4,13.6,5.5
			c-9.3-0.3-17.5-2.4-26.6-4.1c5.5,4.1,11.7,5.3,18,7.6c-8.4,0.7-15.8-1.9-23.4-2.9c4,3.4,8.4,5.2,13.1,6.9
			c10.5,3.6,21.5,5.2,32.3,7c1,0.2,2.7-0.5,3.4-1.4c3.1-3.3,5.7-6.7,8.8-9.8c6.9-7,15.5-11.5,25.6-12.7c2.1-0.3,4.3-0.3,6.4,0
			c5.7,0.9,11.2,3.1,16.7,5c0.3,0.2,0.5,0.5,0.9,0.7c-0.3,0-0.7,0-0.9,0.2c-7.2,0.3-14.6,0.5-21.8,1.2c-3.4,0.3-6.9,1-10.3,2.2
			c-7.6,2.7-14.3,7-16,15c-1,4.5-0.7,8.8,0.7,12.9c1.2,3.8,2.6,7.4,7,8.8c1.5,0.5,3.1,1.5,4.3,2.7c4.6,4,9.5,7.6,13.4,12
			c3.3,3.8,5.5,8.4,8.1,12.7c0.2,0.2,0.2,0.3,0.3,0.3c-0.2,0-0.3,0-0.5,0c-3.3-2.6-6.5-5.3-10-7.7c-6.7-4.6-13.7-8.4-21.3-11.3
			c-7.7-2.9-15.8-3.3-23.9-3.4c-12.4-0.3-24.9,0-37.3,0.3c-5.7,0.2-11.2,0.5-16.8,0.9c-6.4,0.3-12.7,0.5-19.1,0.9
			c-2.6,0.2-5.2,0.5-7.7,0.9c-0.2,0.2-0.3,0.5-0.5,0.7c6.4,7.9,12.4,16.3,19.2,23.7c6,6.7,12.9,12.7,19.8,18.4
			c0.3,0.2,0.5,0.5,0.9,0.7c11,9.1,22.7,16.8,35.1,24.2c8.8,5.3,18,10,27.5,14.4c1.2,0.5,2.4,1,3.6,1.7c3.3-14.1,7.2-27.3,15.1-39.9
			c7.4-11.9,12-12.7,16.5-14.6c2.7-1.2,4.8-0.2,6.9,1.4c3.3,2.6,5,6.2,6.2,10.1c0.5,1.9,0.9,4,1.4,6.4c4.5-8.8,6.2-17.5,6.5-26.8
			c0-2.2-0.2-5.7-0.5-7.7c-0.9-5.3-1.7-10.8-3.3-16c-1.9-7-3.6-14.1-1.7-21.5c1.7-6.5,5-11.9,10.5-15.8c0.5-0.3,1.5-0.9,1.9-0.7
			c1.9,1,4.1,1.9,5.2,3.4c1.4,1.9,1.7,4.5,2.2,6.7c0.3,1.7,0.3,3.8,0.3,5.5c1.5-2.4,2.7-4.8,4-7.2
			C346.8,230.2,348.2,222.5,347.1,214.8z M313.1,287.8c-5.5-8.2-10.8-16.8-20.1-21.8c3.8-0.5,7.7-1,11.2,1.2
			c2.7,1.9,5.5,3.6,8.9,1.5c0.5-0.3,1.2-0.2,1.4,0.5c2.1,5.8,2.2,11.7-0.5,17.5C313.6,287.3,313.3,287.6,313.1,287.8z"/>
		<path d="M174.8,186.9c0,0,1.9-2.1,3.1-2.7c6.4-3.3,13.2-5.3,20.3-6.5c3.3-0.5,6.5-0.9,10-1.4c0.7-0.2,1.4-0.3,1.7-0.9
			c2.6-3.8,7-3.6,10.7-4.3c2.6-0.5,5-1,7.6-1.2c10.3-0.9,20.8-1.5,31.1-1.4c7.4,0.2,15,0.7,22.3,1.9c10.7,1.7,20.8,4.8,29.7,11.2
			c0.7,0.5,1.2,1,1.7,2.1c-1.4-0.3-2.7-0.9-4.3-1.2c-6.9-1.9-13.9-4-20.8-5.5c-6-1.4-12-2.1-18-2.4c-11-0.5-22-0.9-33-1
			c-5.2,0-10.5,0.5-15.6,0.9c-0.5,0-1,0.9-1.5,1.2c-1.7,1-3.4,2.4-5.3,3.3c-3.6,1.5-7.6,2.7-11.3,4.1c-0.7,0.2-1,0.9-1.5,1.4
			c0.2,0.2,0.2,0.3,0.3,0.5c2.4-0.3,5-0.7,7.4-1c4.3-0.5,8.6-1.4,12.9-1.7c5.2-0.3,10.3-0.7,15.6-0.5c9.6,0.3,19.2,1.4,28.9,3.4
			c8.9,1.9,17.7,5,26.1,8.4c1.5,0.7,1.7,1.7,0.7,2.7c-2.2,2.2-4.5,4.6-7.2,6.2c-6.7,4-14.3,5.7-22,5.8c-0.5,0-1,0-1.7,0
			c0-0.5,0-0.7,0-1c-0.2-1.2,0.5-2.6-1-3.4c-1.5-0.9-2.4,0.5-3.3,1.2c-1.9,1.4-3.8,1.2-5.3-0.9c-1.9-2.4-1.7-3.6,0.5-5.2
			c0.3-0.3,0.9-0.5,1-0.9c0.3-0.3,0.5-0.9,0-1.5c-0.3-0.7-1.5-1-2.4-1c-5,0.7-9.3,5.5-6.5,10.5c1.7,3.1,4.8,4.1,7.7,4.8
			c3.8,0.9,7.7,0.9,11.7,1.4c-2.2,0.5-4.3,1.4-6.5,1.4c-5.5,0.2-10.8,0.5-16.2-1.4c-5-1.7-9.6-4.1-14.1-7c-1-0.7-2.7-0.7-4.1-0.5
			c-9.5,1-18.4,3.8-27,7.7c-2.9,1.4-5.7,3.1-8.9,4.8c1.9-4.5,4.8-7.4,8.1-10c10.3-7.7,22-13.1,34.4-18.2c-2.7-0.2-5-0.3-7.4-0.5
			c-2.4,0-4.6,0-7,0c-2.4,0-4.8,0.3-7.2,0.3c-6.5,0.2-11.7,4-17,6.9c-2.6,1.4-5.2,3.1-7.6,4.8c-10.5,7.2-20.5,15.3-25.1,27.3
			c0,0.2,0,0.2,0,0.7c6.5,0.5,12.7,2.6,18.6,6.2c-4.8,0-9.6,0-14.4,0c0,0.3-0.2,0.7-0.2,1c7.4,0.9,14.6,2.4,21.3,6
			c0,0.2-0.2,0.5-0.2,0.7c-1-0.2-2.1-0.5-3.3-0.5c-6-0.2-11.9,0.5-17.7,1.9c-6.7,1.5-14.3-0.7-17.2-7.4c-1.5-3.6-0.9-7.2,0.9-10.7
			c2.7-5.8,6.4-13.4,8.6-17C158.5,205,170.7,190.9,174.8,186.9z"/>
		<path d="M190.8,259.6c4.8-0.7,9.6-1.7,14.4-2.2c5.7-0.7,11.5-1.4,17.4-1.9c1.5-0.2,3.3,0,4.8,0c7.2-0.2,14.4-0.3,21.7-0.3
			c4.1,0,8.4,0.5,12.5,0.9c0.3,0,0.5,0.2,0.7,0.3c1.5,2.1,3.1,4,4.8,6.5c-3.6-0.2-6.9-0.3-10-0.7c-3.6-0.3-7.4-1-11-1.2
			c-6.7-0.5-13.6-1-20.3-1.4c-6.7-0.2-13.2-0.2-19.9-0.2c-5,0-10,0.3-15,0.7C190.8,260,190.8,259.8,190.8,259.6z"/>
	</g>
	<path class="st3" d="M266.6,284.5L266.6,284.5z"/>
</g>
</svg>
